 <svg  version="1.0" xmlns="http://www.w3.org/2000/svg"  width="300.000000pt" height="300.000000pt" viewBox="0 0 300.000000 300.000000"  preserveAspectRatio="xMidYMid meet">  <g transform="translate(0.000000,300.000000) scale(0.100000,-0.100000)" fill="#838181" stroke="none"> <path d="M115 2985 c-3 -8 -7 -21 -9 -29 -3 -8 2 -22 9 -33 8 -10 15 -26 15 -35 0 -28 37 -44 166 -74 l121 -27 40 32 c34 27 42 41 52 87 8 42 8 60 -2 75 -6 10 -14 19 -18 19 -3 0 -13 -35 -23 -77 -31 -131 -22 -127 -194 -87 -130 30 -139 38 -121 109 6 25 9 49 5 52 -3 3 -9 -8 -12 -26 -4 -17 -11 -34 -17 -38 -6 -4 -7 7 -3 31 7 35 0 51 -9 21z m374 -98 c-5 -17 -9 -33 -9 -34 0 -2 -4 -3 -9 -3 -5 0 -4 17 1 40 6 22 14 37 18 35 5 -3 4 -20 -1 -38z"/> <path d="M191 2963 c-21 -75 -24 -73 127 -108 48 -12 77 -14 83 -8 14 14 39 112 33 128 -5 13 -50 26 -88 24 -11 0 -1 -6 23 -12 40 -11 69 -37 41 -37 -10 0 -148 33 -192 46 -13 4 -19 -4 -27 -33z m114 -4 c47 -12 85 -26 85 -31 0 -5 5 -6 10 -3 13 8 13 -16 1 -48 l-10 -24 -90 21 c-50 12 -93 25 -97 28 -7 8 4 78 12 78 3 0 43 -10 89 -21z"/> <path d="M633 2987 c-48 -18 -67 -41 -59 -71 7 -30 48 -45 71 -26 8 6 24 32 35 56 12 24 29 44 37 44 13 0 15 -10 9 -64 -5 -52 -3 -67 10 -80 18 -19 28 -20 55 -6 26 14 24 49 -6 106 -21 40 -30 48 -58 51 -30 3 -36 -1 -53 -32 -14 -27 -20 -31 -27 -20 -4 8 -16 15 -25 15 -9 0 1 9 23 19 45 22 37 26 -12 8z m144 -59 c13 -15 12 -17 -9 -20 -26 -3 -37 -36 -16 -50 10 -8 10 -9 -2 -5 -11 3 -14 16 -12 53 3 60 13 89 20 59 2 -11 11 -28 19 -37z m-156 21 c19 -10 19 -12 5 -28 -9 -10 -13 -21 -9 -25 4 -4 0 -4 -9 -1 -20 8 -29 30 -22 50 7 18 9 18 35 4z m159 -64 c0 -8 -7 -15 -15 -15 -8 0 -15 7 -15 15 0 8 7 15 15 15 8 0 15 -7 15 -15z m16 -20 c-3 -8 -11 -15 -18 -14 -10 0 -10 2 0 6 6 2 12 14 13 26 0 12 3 16 6 9 3 -7 2 -19 -1 -27z"/> <path d="M881 2969 c-34 -55 -21 -100 18 -65 22 20 70 21 77 1 7 -17 40 -20 49 -5 7 11 -32 106 -40 98 -3 -3 2 -22 10 -42 18 -43 15 -73 -4 -38 -15 28 -77 31 -97 5 -23 -32 -25 -6 -3 31 12 20 19 39 16 43 -3 3 -15 -10 -26 -28z"/> <path d="M926 2983 c-7 -17 9 -33 33 -33 8 0 11 6 7 16 -3 9 -6 20 -6 25 0 16 -28 10 -34 -8z"/> <path d="M1057 2979 c-5 -14 -7 -41 -5 -60 3 -34 3 -34 59 -37 71 -4 84 9 74 75 -5 38 -9 44 -17 30 -6 -12 -6 -22 2 -32 15 -19 4 -52 -21 -60 -11 -4 -33 -4 -49 0 -27 6 -29 10 -32 58 -3 44 -5 48 -11 26z"/> <path d="M1090 2988 c0 -10 38 -20 50 -13 19 12 10 20 -20 20 -16 0 -30 -3 -30 -7z"/> <path d="M1215 2980 c-10 -31 4 -78 28 -95 27 -19 81 -19 97 0 16 20 2 38 -26 32 -33 -6 -57 14 -52 44 3 22 7 24 46 21 23 -1 42 1 42 5 0 5 -18 9 -40 11 -33 2 -42 -2 -56 -23 -15 -23 -15 -27 1 -51 13 -20 23 -25 46 -22 30 5 40 -8 14 -18 -48 -19 -104 42 -84 93 5 14 5 23 -1 23 -5 0 -12 -9 -15 -20z"/> <path d="M1425 2983 c4 -10 16 -43 28 -73 24 -65 34 -80 54 -80 13 0 222 78 232 87 3 2 -1 9 -7 15 -7 7 -12 22 -12 34 0 13 -4 26 -10 29 -5 3 -10 0 -10 -8 0 -11 -167 -87 -192 -87 -3 0 -14 23 -24 50 -10 28 -21 50 -26 50 -5 0 26 -101 37 -118 1 -1 48 15 104 37 96 37 102 39 111 21 9 -17 -1 -23 -96 -59 -58 -23 -107 -41 -109 -41 -6 0 -53 105 -61 135 -3 14 -11 25 -16 25 -6 0 -7 -8 -3 -17z"/> <path d="M2480 2949 l0 -50 43 3 42 3 3 48 c2 28 -1 47 -7 47 -6 0 -11 -20 -11 -45 0 -43 -1 -45 -30 -45 -35 0 -40 17 -7 23 21 4 21 4 -3 6 -20 1 -22 3 -10 11 12 8 13 11 1 19 -11 7 -11 9 0 13 9 3 8 6 -4 11 -15 5 -17 -1 -17 -44z"/> <path d="M2658 2968 c-3 -20 1 -43 12 -61 l18 -29 7 44 c3 23 9 51 11 61 3 9 1 17 -5 17 -6 0 -11 -13 -11 -29 0 -17 -5 -33 -11 -37 -8 -5 -10 4 -7 30 5 44 -8 48 -14 4z"/> <path d="M2822 2949 c18 -42 23 -48 29 -33 12 29 10 72 -2 80 -8 4 -9 -3 -4 -25 8 -40 -3 -40 -16 -1 -6 17 -15 30 -19 30 -5 0 1 -23 12 -51z"/> <path d="M1780 2972 c0 -18 33 -52 51 -52 10 0 19 -5 19 -11 0 -11 -16 -9 -52 6 -10 4 -24 -1 -37 -14 -26 -26 -28 -92 -3 -141 15 -31 23 -36 67 -42 66 -10 77 -5 105 43 46 82 24 158 -42 145 -32 -6 -35 0 -10 27 16 20 16 20 -3 13 -42 -17 -52 -17 -64 -2 -11 13 -11 16 1 16 8 0 19 -5 26 -12 9 -9 12 -9 12 0 0 13 -32 32 -54 32 -9 0 -16 -3 -16 -8z m45 -82 c4 -6 26 -8 55 -4 43 6 49 4 55 -16 10 -31 -2 -84 -26 -114 -16 -21 -29 -26 -57 -25 -60 2 -69 8 -86 50 -19 46 -20 73 -6 100 11 20 54 26 65 9z"/> <path d="M1782 2878 c-14 -14 -16 -88 -2 -88 5 0 7 13 3 32 -4 23 -2 34 11 44 9 6 13 15 8 18 -5 3 -14 0 -20 -6z"/> <path d="M2120 2961 l-44 -6 -16 -65 c-15 -63 -17 -65 -50 -70 -39 -6 -48 -34 -17 -54 28 -18 50 5 68 70 l16 59 52 5 53 6 -6 -29 c-3 -16 -6 -33 -6 -37 0 -3 -13 -5 -28 -2 -36 5 -61 -20 -42 -43 15 -18 56 -20 66 -4 8 13 44 148 44 167 0 12 -15 13 -90 3z m70 -26 c0 -8 -8 -15 -17 -15 -10 0 -35 -3 -55 -6 -43 -7 -53 11 -15 26 37 15 87 12 87 -5z m-33 -121 c5 -15 -20 -24 -37 -14 -7 4 -9 13 -5 19 8 14 37 11 42 -5z m-122 -14 c8 -13 -20 -24 -41 -16 -20 8 -9 26 16 26 10 0 22 -5 25 -10z"/> <path d="M1090 2936 c0 -22 4 -26 29 -26 54 0 52 32 -1 45 -25 6 -28 5 -28 -19z m50 -6 c0 -13 -11 -13 -30 0 -12 8 -11 10 8 10 12 0 22 -4 22 -10z"/> <path d="M1639 2920 c-96 -38 -122 -50 -117 -55 2 -3 40 9 84 27 86 34 89 36 83 42 -2 2 -25 -4 -50 -14z"/> <path d="M2398 2913 c-21 -8 -38 -19 -38 -23 0 -5 -21 -20 -46 -35 -53 -31 -204 -161 -204 -176 0 -5 4 -9 10 -9 20 0 154 86 204 131 28 25 59 48 68 52 20 7 51 52 46 66 -1 5 -20 2 -40 -6z m12 -28 c-14 -16 -40 -20 -40 -6 0 10 17 19 39 20 11 1 11 -2 1 -14z m-61 -42 c-19 -25 -32 -33 -41 -27 -4 3 -8 -1 -8 -9 0 -8 -24 -30 -52 -49 -90 -59 -106 -62 -48 -8 59 54 104 83 114 73 3 -4 6 1 6 10 0 14 13 24 34 26 5 1 2 -7 -5 -16z"/> <path d="M2894 2875 c-8 -21 2 -45 19 -45 8 0 20 7 27 15 10 12 10 18 0 30 -7 8 -19 15 -27 15 -7 0 -16 -7 -19 -15z m36 -15 c0 -5 -7 -10 -15 -10 -8 0 -15 5 -15 10 0 6 7 10 15 10 8 0 15 -4 15 -10z"/> <path d="M2628 2823 c-83 -32 -118 -50 -118 -62 0 -9 24 -77 53 -151 43 -108 57 -136 74 -138 11 -2 71 16 131 40 97 37 109 44 98 58 -7 8 -13 22 -13 31 0 19 -96 269 -103 268 -3 0 -58 -21 -122 -46z m145 -40 c14 -38 34 -91 45 -119 l21 -51 -92 -37 c-51 -20 -97 -36 -102 -36 -14 0 -101 233 -90 237 6 2 48 19 95 38 47 18 88 34 91 34 4 1 18 -29 32 -66z m-194 -132 c24 -61 41 -116 39 -122 -2 -7 -23 37 -46 97 -59 154 -57 148 -45 141 5 -3 29 -56 52 -116z m265 -92 c-2 -4 -49 -23 -104 -44 -76 -29 -104 -35 -113 -26 -17 17 -3 25 108 68 85 33 101 37 106 23 4 -8 5 -18 3 -21z"/> <path d="M2653 2776 c-66 -28 -68 -30 -53 -65 l12 -30 51 21 c29 11 62 24 74 29 20 7 21 11 10 38 -13 36 -24 37 -94 7z m81 -12 c4 -9 5 -18 4 -19 -18 -11 -118 -42 -122 -38 -17 18 -2 40 37 55 56 21 74 21 81 2z"/> <path d="M2725 2538 c-44 -17 -75 -33 -70 -35 6 -2 49 12 95 31 47 20 78 35 70 35 -8 0 -51 -14 -95 -31z"/> <path d="M90 2844 c0 -9 -9 -18 -20 -21 -24 -6 -27 -23 -4 -23 9 0 18 -9 21 -20 3 -11 9 -20 14 -20 5 0 9 9 9 20 0 11 -4 20 -10 20 -5 0 -10 5 -10 11 0 8 4 8 15 -1 8 -6 22 -10 32 -7 16 4 15 6 -4 12 -13 4 -23 15 -23 26 0 11 -4 19 -10 19 -5 0 -10 -7 -10 -16z"/> <path d="M1180 2805 c0 -9 5 -15 11 -13 6 2 11 8 11 13 0 5 -5 11 -11 13 -6 2 -11 -4 -11 -13z"/> <path d="M2864 2809 c-3 -6 -2 -15 4 -21 13 -13 32 -2 32 18 0 16 -26 19 -36 3z"/> <path d="M1527 2783 c-3 -15 -1 -35 4 -45 5 -9 9 -36 8 -60 l-1 -43 -17 65 c-9 36 -22 65 -29 64 -75 -6 -77 -10 -58 -80 28 -98 28 -101 -1 -50 -46 81 -70 69 -37 -19 8 -22 16 -49 18 -60 4 -32 48 -159 59 -172 19 -25 142 -9 178 23 18 16 17 91 -3 181 -9 41 -8 56 2 68 17 20 8 111 -13 132 -27 27 -37 5 -38 -85 -1 -76 -2 -82 -10 -47 -5 22 -12 58 -15 80 -12 73 -37 99 -47 48z m33 -35 c0 -10 -4 -18 -10 -18 -5 0 -10 15 -10 33 0 24 3 28 10 17 5 -8 10 -23 10 -32z m70 -49 c0 -37 -4 -58 -10 -54 -5 3 -10 31 -10 61 0 30 5 54 10 54 6 0 10 -27 10 -61z m-114 -44 c13 -50 19 -94 15 -98 -5 -5 -19 -6 -31 -2 -18 6 -20 9 -9 16 11 7 9 9 -6 10 -11 0 -14 3 -7 6 6 2 12 9 12 14 0 6 -4 7 -10 4 -5 -3 -10 -2 -10 4 0 5 8 12 18 14 11 3 9 5 -8 6 -20 1 -22 3 -10 11 13 8 12 10 -4 10 -15 0 -16 3 -6 15 10 12 10 15 -1 15 -11 0 -11 2 1 10 12 8 12 10 -5 10 -18 1 -17 2 5 16 24 14 24 15 3 11 -24 -5 -32 8 -10 16 31 14 41 0 63 -88z m54 28 c0 -7 -4 -13 -10 -13 -5 0 -10 12 -10 28 0 21 2 24 10 12 5 -8 10 -21 10 -27z m-127 -95 c13 -29 14 -38 4 -38 -12 0 -37 53 -44 95 -4 20 -4 20 10 0 7 -11 20 -37 30 -57z m141 30 c4 -23 3 -45 -2 -50 -13 -13 -18 -2 -27 50 -5 33 -4 42 8 42 9 0 17 -15 21 -42z m46 -13 c0 -14 -4 -25 -10 -25 -5 0 -10 11 -10 25 0 14 5 25 10 25 6 0 10 -11 10 -25z m14 -87 c10 -92 9 -98 -26 -112 -50 -20 -124 -28 -136 -13 -5 7 -17 37 -27 67 -10 30 -20 61 -23 68 -3 9 12 12 54 13 33 0 77 6 99 14 22 7 43 13 46 14 3 1 9 -23 13 -51z"/> <path d="M1460 2516 c0 -20 32 -117 37 -112 7 7 -17 97 -28 111 -5 5 -9 5 -9 1z"/> <path d="M634 2714 c68 -136 64 -133 119 -101 25 15 53 24 61 21 13 -5 15 -2 10 12 -4 11 -4 16 0 12 4 -3 8 -12 10 -20 2 -19 16 -38 26 -38 5 0 12 22 16 48 5 42 10 50 45 70 38 22 51 42 27 42 -7 0 -62 7 -123 14 -60 8 -138 17 -173 21 l-63 7 45 -88z m44 40 c8 4 159 -44 182 -59 4 -2 5 -18 2 -34 l-4 -31 -20 25 c-21 26 -145 101 -154 92 -3 -3 25 -22 61 -42 l67 -38 -46 -28 c-25 -16 -49 -29 -53 -29 -6 0 -76 124 -92 163 -2 5 8 1 22 -8 15 -9 30 -14 35 -11z m136 8 l120 -17 -29 -19 c-29 -19 -29 -19 -134 17 -122 41 -119 42 43 19z"/> <path d="M1226 2792 c-8 -13 11 -35 23 -28 16 10 14 36 -3 36 -8 0 -17 -4 -20 -8z"/> <path d="M180 2770 c0 -11 7 -20 15 -20 8 0 15 9 15 20 0 11 -7 20 -15 20 -8 0 -15 -9 -15 -20z"/> <path d="M1037 2719 c-22 -13 -39 -53 -31 -74 5 -12 12 -10 36 11 17 14 44 28 59 31 36 7 37 16 4 31 -31 14 -45 15 -68 1z m63 -13 c0 -2 -18 -13 -40 -25 -28 -15 -40 -17 -40 -8 0 21 22 37 52 37 15 0 28 -2 28 -4z"/> <path d="M153 2691 c-68 -14 -123 -29 -123 -33 0 -5 18 -15 40 -24 l41 -17 -3 -55 -3 -56 55 -23 c62 -25 160 -30 200 -10 18 9 26 24 32 56 7 44 20 61 46 61 15 0 10 -23 -15 -78 -17 -40 -11 -62 17 -62 26 0 36 25 24 59 -14 37 -3 83 21 91 16 6 5 15 -60 47 -148 75 -134 73 -272 44z m215 -33 c50 -23 92 -45 92 -49 0 -9 -133 25 -167 43 -12 6 -29 8 -38 4 -14 -5 -15 -9 -4 -22 7 -8 21 -13 31 -11 16 5 81 -7 118 -20 8 -3 -18 -14 -59 -23 l-75 -18 -105 46 -105 46 100 22 c54 12 104 23 109 23 6 1 52 -18 103 -41z m-168 -85 c56 -24 65 -25 111 -15 28 7 55 12 60 12 11 0 12 -50 0 -69 -21 -32 -150 -31 -219 2 -22 10 -28 20 -30 55 -2 23 1 42 7 42 5 0 37 -12 71 -27z m246 -100 c-14 -14 -23 4 -13 27 l10 25 5 -23 c2 -13 1 -26 -2 -29z"/> <path d="M456 2712 c-8 -13 11 -35 23 -28 16 10 14 36 -3 36 -8 0 -17 -4 -20 -8z"/> <path d="M530 2695 c-11 -13 -11 -19 3 -32 21 -21 49 -9 45 19 -4 28 -30 35 -48 13z m40 -15 c0 -5 -7 -10 -15 -10 -8 0 -15 5 -15 10 0 6 7 10 15 10 8 0 15 -4 15 -10z"/> <path d="M1156 2695 c5 -11 -1 -15 -23 -15 -35 0 -87 -33 -117 -72 -25 -35 -27 -115 -3 -151 14 -22 15 -27 1 -38 -8 -6 -12 -14 -9 -17 2 -3 11 0 19 7 11 9 22 7 50 -10 29 -17 47 -20 89 -16 40 3 55 1 65 -12 11 -14 12 -13 7 7 -5 17 0 30 19 48 72 72 50 191 -45 239 -18 10 -26 20 -23 30 4 10 0 15 -15 15 -14 0 -19 -5 -15 -15z m51 -42 c46 -22 73 -67 73 -123 0 -56 -27 -101 -73 -123 -43 -21 -68 -21 -110 -3 -52 22 -79 59 -84 113 -10 112 93 184 194 136z"/> <path d="M1115 2653 c-107 -28 -128 -165 -35 -230 27 -19 96 -21 128 -4 33 17 62 70 62 111 0 39 -29 93 -57 108 -25 13 -74 21 -98 15z m107 -42 c29 -26 33 -35 33 -81 0 -46 -4 -55 -33 -81 -87 -78 -218 6 -182 116 26 78 120 102 182 46z"/> <path d="M1141 2621 c-9 -6 -11 -20 -7 -48 6 -35 4 -40 -18 -53 -43 -22 -29 -32 14 -10 21 11 52 20 68 20 21 0 31 6 35 20 5 20 -8 29 -15 10 -1 -5 -18 -12 -35 -16 -32 -6 -33 -6 -33 30 0 20 5 36 10 36 6 0 10 5 10 10 0 12 -10 13 -29 1z"/> <path d="M2386 2694 c-9 -23 -7 -36 3 -30 12 8 21 46 11 46 -4 0 -11 -7 -14 -16z"/> <path d="M1223 2694 c-6 -3 9 -25 35 -53 26 -26 50 -46 55 -44 15 8 6 64 -13 83 -19 19 -50 24 -77 14z m50 -15 c27 -15 37 -28 37 -52 0 -14 -8 -10 -35 19 -45 48 -46 56 -2 33z"/> <path d="M1957 2679 c-4 -15 -11 -18 -36 -13 -71 15 -168 -54 -190 -133 -13 -47 -13 -49 0 -96 11 -42 73 -117 95 -117 10 0 13 -7 8 -24 -4 -17 -2 -24 8 -23 42 1 56 -4 53 -20 -2 -13 -10 -17 -33 -16 -17 2 -34 -2 -37 -7 -4 -6 23 -10 74 -10 53 0 81 4 81 11 0 7 -12 9 -35 5 -31 -6 -35 -4 -35 14 0 14 7 20 23 20 37 1 100 35 134 73 90 103 63 257 -59 328 -44 26 -46 26 -51 8z m66 -34 c68 -47 97 -134 73 -219 -27 -92 -126 -158 -213 -141 -44 8 -43 25 2 18 48 -8 117 20 154 63 74 84 57 210 -36 269 -31 19 -42 35 -25 35 4 0 24 -11 45 -25z m-74 -11 c-10 -13 -10 -17 2 -25 11 -7 9 -9 -8 -9 -28 0 -31 -27 -5 -47 16 -13 16 -14 -3 -9 -24 7 -38 -2 -54 -32 -14 -27 -2 -48 36 -63 20 -7 22 -13 17 -52 -9 -65 10 -70 56 -17 l37 43 -5 -32 c-6 -44 -51 -71 -117 -71 -61 0 -88 14 -64 33 9 6 19 24 22 39 6 23 1 30 -40 57 -50 34 -69 38 -76 19 -3 -8 -6 -6 -6 5 -1 9 2 17 7 17 4 1 33 25 66 54 l59 54 -29 15 -29 16 25 10 c14 5 47 10 74 10 43 1 47 -1 35 -15z m73 -31 c42 -45 50 -67 32 -89 -11 -14 -17 -15 -20 -6 -9 20 -34 14 -34 -8 0 -12 9 -24 21 -28 20 -8 20 -9 -8 -39 -15 -17 -33 -39 -39 -49 -21 -35 -31 -26 -26 24 4 48 3 50 -27 60 -50 18 -31 70 21 57 30 -8 78 10 78 29 0 21 -19 30 -35 16 -15 -12 -55 -5 -55 11 0 5 8 9 18 9 26 0 34 11 21 27 -23 27 27 14 53 -14z m-184 -20 c-6 -7 -14 -13 -19 -13 -5 0 -24 -17 -44 -37 -26 -29 -35 -34 -35 -20 0 23 16 55 42 83 16 18 23 20 43 10 17 -8 21 -14 13 -23z m168 -32 c-3 -5 -16 -11 -28 -14 -22 -6 -22 -5 -4 8 22 17 40 20 32 6z m64 -86 c0 -23 -6 -38 -15 -42 -22 -8 -28 2 -16 24 5 10 12 26 15 36 9 28 16 20 16 -18z m-236 -44 c18 -20 18 -21 -1 -51 l-20 -31 -31 36 c-32 36 -37 50 -26 79 5 13 9 14 32 2 15 -8 35 -23 46 -35z"/> <path d="M2250 2689 c0 -9 7 -22 15 -29 19 -16 19 0 0 26 -12 16 -14 16 -15 3z"/> <path d="M2320 2685 c0 -8 5 -15 10 -15 6 0 10 7 10 15 0 8 -4 15 -10 15 -5 0 -10 -7 -10 -15z"/> <path d="M2913 2678 c2 -7 10 -12 16 -10 6 1 11 -7 11 -19 0 -14 5 -19 17 -17 25 5 28 29 4 35 -12 3 -21 9 -21 14 0 5 -7 9 -16 9 -9 0 -14 -6 -11 -12z"/> <path d="M2434 2655 c-9 -22 1 -29 15 -11 8 10 9 16 1 21 -5 3 -13 -1 -16 -10z"/> <path d="M2210 2632 c0 -5 7 -13 16 -16 10 -4 14 -1 12 6 -5 15 -28 23 -28 10z"/> <path d="M2291 2626 c-55 -30 -68 -114 -26 -164 21 -25 60 -101 56 -109 -6 -14 2 -33 14 -33 8 0 15 -4 15 -10 0 -16 30 -12 48 7 12 11 17 34 17 73 1 36 7 64 18 80 20 28 22 78 5 115 -22 49 -96 69 -147 41z m116 -28 c33 -31 36 -63 11 -128 -24 -63 -38 -76 -38 -35 0 14 5 25 10 25 6 0 10 9 10 20 0 13 -7 20 -20 20 -12 0 -20 -7 -20 -17 0 -15 -1 -15 -19 1 -16 14 -20 15 -30 2 -15 -17 -7 -36 15 -36 8 0 14 -10 14 -25 0 -14 -4 -25 -9 -25 -12 0 -81 112 -81 132 0 81 97 122 157 66z m-37 -180 c0 -10 -4 -18 -10 -18 -5 0 -10 15 -10 33 0 24 3 28 10 17 5 -8 10 -23 10 -32z m30 -28 c0 -5 -17 -9 -37 -9 l-38 2 35 7 c19 4 36 8 38 9 1 0 2 -3 2 -9z m-20 -30 c-36 -11 -52 -11 -45 0 3 6 21 10 38 9 31 -1 31 -1 7 -9z m15 -20 c-3 -5 -21 -10 -38 -9 -31 1 -31 1 -7 9 36 11 52 11 45 0z"/> <path d="M2290 2590 c-11 -11 -20 -28 -20 -37 1 -16 2 -16 12 2 6 11 21 28 32 37 12 10 16 17 9 18 -7 0 -22 -9 -33 -20z"/> <path d="M532 2613 c4 -21 33 -25 33 -3 0 8 -8 16 -18 18 -14 3 -18 -1 -15 -15z"/> <path d="M2474 2605 c-15 -11 -16 -14 -3 -15 8 0 24 7 35 15 15 11 16 14 3 15 -8 0 -24 -7 -35 -15z"/> <path d="M2920 2605 c0 -10 7 -15 18 -13 21 4 19 22 -2 26 -10 2 -16 -3 -16 -13z"/> <path d="M2160 2582 c0 -11 24 -22 48 -22 21 0 5 15 -25 25 -13 3 -23 2 -23 -3z"/> <path d="M2922 2567 c-7 -8 -6 -18 4 -31 21 -30 17 -60 -17 -127 -34 -69 -41 -131 -18 -155 20 -20 94 -31 103 -15 5 7 -7 11 -36 11 -51 0 -68 13 -68 52 0 27 1 28 55 28 30 0 55 4 55 10 0 5 -23 7 -52 4 -52 -4 -53 -4 -23 10 17 9 40 15 53 16 12 0 22 5 22 11 0 6 -8 8 -17 5 -44 -13 -73 -18 -73 -12 0 3 9 20 20 38 12 21 20 51 20 79 0 32 5 49 15 53 10 4 15 -1 16 -17 1 -54 16 -59 15 -4 l0 57 -32 0 c-17 0 -36 -6 -42 -13z m53 -7 c-11 -5 -27 -9 -35 -9 -13 -1 -13 0 0 9 8 5 24 9 35 9 20 0 20 0 0 -9z"/> <path d="M2180 2510 c0 -13 11 -13 30 0 12 8 11 10 -7 10 -13 0 -23 -4 -23 -10z"/> <path d="M802 2498 c-27 -27 -6 -56 27 -38 12 6 22 6 26 1 3 -5 -4 -13 -15 -16 -27 -9 -22 -39 8 -43 30 -4 29 -34 0 -32 -39 4 -48 1 -48 -15 0 -22 44 -37 74 -25 33 12 50 45 40 78 -4 15 -9 37 -10 50 -2 13 -8 30 -15 38 -14 17 -70 19 -87 2z m70 -9 c16 -8 19 -17 14 -40 -3 -15 -1 -31 4 -34 14 -9 12 -49 -2 -63 -14 -14 -68 -16 -68 -3 0 5 12 11 28 13 34 4 47 48 13 48 -25 0 -27 15 -4 28 10 6 14 16 10 27 -6 13 -14 15 -39 10 -31 -6 -32 -5 -14 10 23 18 31 18 58 4z"/> <path d="M2475 2490 c3 -5 13 -10 21 -10 8 0 12 5 9 10 -3 6 -13 10 -21 10 -8 0 -12 -4 -9 -10z"/> <path d="M635 2465 c-29 -28 -31 -38 -9 -56 14 -11 19 -9 34 11 37 49 32 9 -5 -45 -49 -70 -41 -82 42 -69 48 7 58 12 58 29 0 16 -6 20 -27 18 -33 -2 -33 -2 -8 39 25 41 25 53 0 78 -27 27 -56 25 -85 -5z m81 -20 c4 -16 -1 -36 -15 -58 -12 -19 -21 -37 -21 -41 0 -3 17 -6 38 -6 25 -1 32 -3 22 -9 -18 -10 -100 -21 -100 -14 0 3 14 28 30 55 17 26 30 55 30 62 0 23 -29 27 -42 6 -15 -23 -28 -26 -28 -7 0 21 22 37 52 37 21 0 29 -6 34 -25z"/> <path d="M0 2470 c0 -6 17 -27 38 -45 l37 -35 -37 0 c-21 0 -38 -3 -38 -8 0 -4 19 -6 43 -4 48 5 43 -7 -11 -25 l-37 -13 35 4 c19 3 43 7 52 11 13 5 19 0 24 -21 10 -38 -6 -57 -62 -73 -27 -8 -44 -16 -37 -18 23 -8 93 18 108 41 14 21 14 28 0 63 -16 39 -115 146 -115 123z"/> <path d="M2814 2466 c-5 -13 -3 -21 4 -24 7 -2 12 -8 12 -14 0 -6 -6 -6 -15 2 -8 6 -22 10 -32 7 -16 -4 -16 -6 4 -12 11 -4 24 -17 28 -28 l6 -22 9 23 c5 12 16 22 25 22 8 0 15 5 15 10 0 6 -7 10 -15 10 -9 0 -20 10 -24 23 -9 21 -9 21 -17 3z"/> <path d="M492 2434 c-25 -38 -22 -54 9 -54 15 0 19 -7 19 -39 0 -40 20 -68 41 -56 11 7 6 123 -7 168 -9 28 -37 19 -62 -19z m62 -86 c3 -27 2 -48 -3 -48 -9 0 -21 48 -21 86 0 13 -4 24 -10 24 -5 0 -10 -4 -10 -10 0 -5 -4 -10 -10 -10 -16 0 -12 15 12 46 l22 28 7 -35 c4 -19 9 -55 13 -81z"/> <path d="M2205 2460 c-3 -5 1 -10 9 -10 8 0 18 5 21 10 3 6 -1 10 -9 10 -8 0 -18 -4 -21 -10z"/> <path d="M1350 2425 c-6 -8 -10 -19 -8 -24 1 -5 45 -57 96 -115 118 -134 200 -188 156 -104 -18 35 -212 258 -224 258 -4 0 -13 -7 -20 -15z m35 -14 c7 -12 -12 -24 -25 -16 -11 7 -4 25 10 25 5 0 11 -4 15 -9z m148 -170 c10 -14 -9 3 -42 39 -33 36 -61 60 -61 54 0 -6 7 -17 15 -24 9 -7 34 -36 56 -64 25 -31 12 -20 -34 28 -56 60 -72 83 -63 92 8 9 23 -1 61 -44 28 -31 58 -67 68 -81z m45 -59 c2 -7 -2 -10 -12 -6 -9 3 -16 11 -16 16 0 13 23 5 28 -10z"/> <path d="M2646 2418 c-10 -13 -16 -43 -16 -73 0 -44 -4 -55 -31 -81 l-32 -29 6 48 c6 44 5 47 -17 47 -26 0 -56 -28 -56 -54 0 -9 -12 -28 -26 -41 -20 -18 -23 -25 -11 -25 9 0 19 5 22 10 3 6 17 7 30 4 12 -3 26 -1 30 6 4 6 15 8 25 5 12 -4 26 2 39 16 20 22 21 22 35 4 12 -16 16 -17 30 -6 9 7 16 26 16 42 0 19 5 29 15 29 8 0 15 5 15 11 0 6 -8 9 -17 7 -12 -2 -20 -15 -23 -37 -5 -37 -24 -52 -33 -27 -3 8 8 40 24 70 20 36 28 63 24 76 -8 26 -30 25 -49 -2z m34 -15 c-1 -10 -9 -34 -20 -53 l-19 -35 -1 33 c0 36 15 72 30 72 6 0 10 -8 10 -17z m-125 -120 c-3 -16 -13 -34 -20 -42 -12 -13 -15 -12 -21 3 -9 23 12 66 32 66 13 0 15 -6 9 -27z"/> <path d="M263 2405 c-7 -20 2 -29 21 -22 9 4 13 13 10 22 -8 19 -23 19 -31 0z"/> <path d="M2151 2366 c-12 -14 -5 -26 16 -26 15 0 18 26 4 34 -5 3 -14 0 -20 -8z"/> <path d="M2756 2348 c-9 -12 -16 -29 -16 -37 0 -8 -10 -25 -22 -38 -12 -13 -17 -23 -11 -23 6 0 16 7 23 15 9 11 16 12 26 4 17 -14 51 -3 64 22 13 23 -2 26 -20 4 -16 -19 -39 -19 -46 -1 -8 20 13 56 32 56 8 0 12 -4 9 -10 -3 -5 -1 -10 5 -10 18 0 7 34 -12 38 -9 2 -23 -7 -32 -20z"/> <path d="M187 2353 c-8 -13 -47 -144 -47 -158 0 -19 58 -41 72 -27 6 6 22 44 34 84 18 57 21 75 11 85 -16 16 -64 27 -70 16z m51 -21 c18 -12 -6 -105 -26 -97 -7 3 -21 5 -29 5 -11 0 -14 7 -9 25 18 71 33 86 64 67z m-20 -116 c8 -9 -13 -36 -27 -36 -23 0 -41 19 -34 37 4 10 14 13 32 8 14 -4 27 -8 29 -9z"/> <path d="M1620 2333 c0 -11 5 -24 12 -31 8 -8 9 -12 1 -12 -6 0 -13 5 -15 12 -3 8 -9 8 -23 1 -17 -10 -17 -11 3 -17 11 -4 22 -17 25 -29 3 -21 4 -21 15 6 6 15 19 27 29 28 15 0 14 2 -4 11 -13 6 -23 17 -23 24 0 7 -4 16 -10 19 -5 3 -10 -2 -10 -12z"/> <path d="M1263 2321 c-10 -10 -33 -26 -50 -35 -18 -9 -33 -19 -33 -22 0 -13 56 -84 66 -84 6 0 17 7 25 16 7 8 24 22 38 29 55 30 55 29 24 73 -31 46 -44 50 -70 23z m4 -24 c-39 -34 -46 -54 -22 -63 14 -6 80 34 71 43 -2 3 -18 -5 -35 -18 -33 -24 -53 -20 -31 6 7 9 15 13 18 11 2 -3 12 4 21 16 l17 20 17 -26 c17 -25 17 -26 -10 -43 -16 -9 -37 -25 -48 -34 -20 -18 -21 -17 -45 18 -19 28 -22 37 -11 41 7 2 28 17 45 33 17 16 36 28 41 28 6 0 -7 -14 -28 -32z"/> <path d="M14 2305 c-4 -9 -2 -21 4 -27 15 -15 44 -1 40 19 -4 23 -36 29 -44 8z"/> <path d="M894 2307 c-2 -7 -3 -85 -2 -172 l3 -160 43 -3 42 -3 0 175 0 176 -40 0 c-24 0 -43 -5 -46 -13z m76 -162 l0 -165 -30 0 c-31 0 -43 19 -12 21 14 0 14 2 -3 9 -11 5 -14 9 -6 9 11 1 11 4 1 16 -10 12 -10 15 1 15 11 0 11 2 -1 10 -13 9 -13 10 0 10 13 0 13 1 0 10 -13 8 -12 10 3 10 9 0 17 5 17 10 0 6 -8 10 -17 10 -15 0 -16 2 -3 10 13 9 13 10 0 10 -13 0 -13 1 0 10 13 9 13 10 0 10 -13 0 -13 1 0 10 13 9 13 11 0 20 -13 8 -12 10 5 11 20 0 20 0 0 9 -13 6 -15 9 -5 9 12 1 13 3 1 10 -10 6 -10 10 -1 16 9 6 9 10 -1 16 -11 7 -11 9 1 9 13 0 13 1 0 10 -13 8 -12 10 3 10 9 0 17 5 17 11 0 6 -7 9 -15 5 -8 -3 -15 -1 -15 4 0 6 14 10 30 10 l30 0 0 -165z"/> <path d="M2950 2300 c0 -13 5 -20 13 -17 6 2 12 10 12 17 0 7 -6 15 -12 18 -8 2 -13 -5 -13 -18z"/> <path d="M357 2304 c-3 -4 -3 -19 0 -35 4 -21 0 -36 -13 -50 -14 -16 -16 -25 -8 -47 12 -32 0 -112 -18 -124 -10 -6 -10 -10 -1 -16 8 -5 9 -22 2 -60 -8 -40 -7 -61 3 -83 7 -16 16 -29 20 -29 3 0 12 41 19 90 8 60 16 90 25 90 7 0 15 -6 17 -12 3 -8 6 -5 6 5 2 38 24 9 53 -68 37 -98 44 -106 52 -62 5 24 0 51 -14 86 -11 28 -17 57 -14 66 4 8 1 15 -5 15 -17 0 -50 83 -44 113 4 18 -1 31 -16 43 -12 10 -21 26 -21 35 0 39 -23 62 -43 43z m25 -39 c3 -14 1 -25 -3 -25 -5 0 -9 11 -9 25 0 14 2 25 4 25 2 0 6 -11 8 -25z m32 -51 c19 -18 19 -20 6 -45 -14 -24 -56 -25 -69 -1 -7 14 -6 25 5 40 18 26 37 28 58 6z m-59 -206 c-9 -56 -18 -104 -21 -107 -12 -12 4 140 23 219 15 60 13 -16 -2 -112z m93 80 c11 -29 29 -76 41 -105 11 -29 17 -54 13 -57 -6 -3 -39 71 -89 202 -3 6 -1 12 5 12 5 0 18 -24 30 -52z m-28 -16 c0 -7 -5 -10 -11 -6 -6 3 -15 0 -20 -7 -6 -10 -9 -2 -9 22 0 20 3 39 7 43 8 7 32 -31 33 -52z"/> <path d="M364 2195 c-4 -9 -2 -21 4 -27 15 -15 44 -1 40 19 -4 23 -36 29 -44 8z m34 -6 c-2 -6 -8 -10 -13 -10 -5 0 -11 4 -13 10 -2 6 4 11 13 11 9 0 15 -5 13 -11z"/> <path d="M1714 2269 c-10 -17 13 -36 27 -22 12 12 4 33 -11 33 -5 0 -12 -5 -16 -11z"/> <path d="M2190 2260 c0 -11 5 -20 10 -20 6 0 10 7 10 15 0 19 2 19 44 -6 36 -21 40 -39 8 -39 -9 0 -35 -11 -57 -25 -23 -14 -56 -25 -77 -25 -20 0 -48 -4 -62 -10 -32 -12 -32 -10 -4 43 16 30 23 37 26 25 4 -22 22 -24 22 -3 0 20 -27 30 -44 16 -7 -6 -26 -41 -41 -77 -27 -63 -27 -67 -12 -100 15 -30 21 -34 56 -34 58 0 101 39 101 91 0 47 9 49 32 9 20 -36 57 -46 109 -31 84 25 76 94 -17 152 -68 43 -104 50 -104 19z m144 -66 c9 -8 16 -29 16 -45 0 -33 -27 -49 -85 -49 -26 0 -39 6 -51 25 -22 34 -13 50 38 68 56 20 63 20 82 1z m-178 -68 c8 -32 -10 -62 -47 -82 -43 -22 -70 -15 -85 22 -16 38 -7 52 42 69 59 21 83 19 90 -9z"/> <path d="M2266 2173 c-6 -14 -9 -15 -15 -4 -12 18 -24 -16 -13 -36 7 -12 11 -11 24 9 27 43 29 48 20 48 -6 0 -13 -8 -16 -17z"/> <path d="M2075 2121 c-3 -6 -10 -9 -15 -6 -5 3 -14 -5 -21 -17 -12 -22 -11 -22 6 -8 17 14 18 14 6 -7 -18 -35 2 -27 22 8 16 29 18 55 2 30z"/> <path d="M800 2256 c0 -21 21 -31 30 -15 5 7 6 17 4 21 -9 14 -34 9 -34 -6z"/> <path d="M1080 2137 c0 -56 6 -126 14 -155 7 -29 11 -63 9 -76 -5 -26 24 -79 39 -70 10 7 2 204 -13 279 -30 157 -49 165 -49 22z m35 -31 c18 -95 18 -96 1 -96 -14 0 -26 66 -26 144 0 56 8 40 25 -48z m15 -143 c0 -20 -3 -24 -11 -16 -7 7 -9 19 -6 27 10 24 17 19 17 -11z m10 -68 c0 -14 -4 -25 -9 -25 -12 0 -19 21 -13 38 8 21 22 13 22 -13z"/> <path d="M560 2223 c0 -28 110 -458 117 -457 45 6 313 78 313 84 0 4 -89 86 -197 181 -228 200 -233 205 -233 192z m398 -358 c11 -10 -13 -19 -115 -44 -70 -17 -136 -34 -145 -37 -10 -3 -18 -1 -18 5 0 6 7 11 15 11 8 0 15 4 15 9 0 5 -10 7 -22 5 -13 -2 -17 -2 -10 2 16 8 15 19 -4 38 -12 12 -12 16 -2 17 7 0 4 4 -7 9 -19 8 -19 9 3 9 12 1 22 6 22 12 0 6 -9 8 -22 3 -21 -6 -22 -5 -8 11 14 17 13 18 -4 12 -16 -6 -17 -5 -6 8 10 12 10 15 -1 15 -11 0 -11 2 1 10 12 8 12 10 -5 10 -18 1 -18 2 3 10 28 12 29 24 1 17 -16 -4 -18 -3 -8 9 9 11 8 14 -7 14 -16 0 -17 2 -4 10 12 8 12 10 -5 11 -20 0 -20 0 0 9 20 9 20 9 0 10 -18 1 -17 2 5 15 l25 14 -25 1 c-20 0 -22 2 -10 10 12 8 12 10 -5 10 -17 0 -17 2 -5 10 12 8 12 10 -5 11 -11 0 -14 3 -7 6 6 2 12 9 12 14 0 6 -4 8 -9 5 -9 -6 -21 15 -21 35 0 7 210 -174 378 -326z"/> <path d="M704 1963 c4 -16 11 -44 17 -64 l9 -36 45 10 c25 6 45 14 45 18 0 9 -104 99 -115 99 -4 0 -4 -12 -1 -27z m94 -68 c-2 -1 -15 -5 -30 -9 -28 -6 -26 -8 -45 58 -4 16 3 13 36 -13 23 -19 41 -34 39 -36z"/> <path d="M736 2213 c-4 -9 0 -23 9 -32 13 -14 17 -14 31 1 9 9 14 24 11 32 -8 21 -43 20 -51 -1z m35 -16 c-13 -13 -26 -3 -16 12 3 6 11 8 17 5 6 -4 6 -10 -1 -17z"/> <path d="M1673 2194 c-3 -8 2 -23 11 -32 14 -15 18 -15 31 -1 9 9 13 23 9 32 -8 21 -43 22 -51 1z m37 -9 c0 -8 -4 -15 -9 -15 -13 0 -22 16 -14 24 11 11 23 6 23 -9z"/> <path d="M2730 2145 l-55 -54 -45 16 c-29 10 -56 14 -74 9 -42 -10 -86 -59 -86 -94 0 -31 26 -62 53 -62 25 0 28 -15 12 -54 -15 -35 -15 -37 9 -61 50 -49 137 -20 175 59 25 50 26 65 7 111 -14 33 -14 36 30 102 67 102 58 112 -26 28z m13 -25 c-31 -53 -59 -83 -73 -78 -10 3 1 20 34 56 27 29 51 52 53 52 2 0 -4 -14 -14 -30z m-92 -37 c12 -12 -25 -80 -53 -101 -17 -13 -26 -62 -11 -62 4 0 31 26 59 58 29 31 55 54 59 50 5 -4 10 -30 13 -56 4 -46 2 -52 -32 -90 -44 -48 -86 -61 -121 -38 -25 17 -33 50 -15 61 6 3 10 17 10 30 0 19 -9 28 -34 39 -55 23 -57 73 -3 111 24 18 110 16 128 -2z m19 -63 c0 -5 -9 -14 -20 -20 -22 -12 -27 -1 -8 18 14 14 28 16 28 2z m-50 -59 c0 -5 -7 -11 -15 -15 -15 -5 -20 5 -8 17 9 10 23 9 23 -2z"/> <path d="M2590 2061 c0 -26 17 -36 35 -21 18 15 8 40 -16 40 -12 0 -19 -7 -19 -19z"/> <path d="M2520 2051 c0 -27 19 -36 37 -18 18 18 9 37 -18 37 -12 0 -19 -7 -19 -19z"/> <path d="M2667 1976 c-7 -17 18 -40 33 -31 5 3 10 15 10 26 0 23 -35 27 -43 5z"/> <path d="M2635 1910 c-9 -15 14 -40 31 -33 22 8 18 43 -5 43 -11 0 -23 -5 -26 -10z"/> <path d="M2575 1880 c-4 -7 -3 -16 3 -22 14 -14 45 -2 40 15 -6 16 -34 21 -43 7z"/> <path d="M1315 2144 c-60 -25 -113 -48 -118 -53 -12 -12 99 -297 118 -305 16 -6 245 82 245 95 0 5 -4 9 -10 9 -5 0 -10 9 -10 20 0 25 -99 280 -108 279 -4 -1 -56 -21 -117 -45z m164 -98 c23 -60 38 -112 34 -116 -4 -4 -49 -23 -99 -42 l-90 -34 -47 119 c-26 66 -46 121 -45 122 18 12 195 71 199 66 4 -3 25 -55 48 -115z m-214 -80 c25 -65 43 -121 40 -124 -7 -8 -7 -8 -53 113 -37 98 -51 147 -37 134 2 -3 25 -58 50 -123z m263 -76 c2 -11 -26 -26 -95 -53 -109 -42 -126 -45 -121 -20 2 10 36 31 93 54 95 40 118 43 123 19z"/> <path d="M1336 2095 c-33 -14 -61 -27 -63 -29 -3 -3 13 -48 23 -64 1 -3 135 48 143 54 8 7 -22 64 -33 64 -6 -1 -38 -12 -70 -25z m82 -16 c4 -22 -108 -66 -120 -47 -13 21 -5 30 42 48 53 21 74 21 78 -1z"/> <path d="M1430 1865 c-30 -13 -64 -26 -75 -29 -10 -3 -16 -8 -13 -11 6 -6 168 53 168 61 0 9 -27 2 -80 -21z"/> <path d="M2876 2182 c-8 -13 11 -35 23 -28 16 10 14 36 -3 36 -8 0 -17 -4 -20 -8z"/> <path d="M36 2151 c-16 -3 -31 -12 -34 -19 -3 -11 0 -12 16 -3 22 12 74 14 107 5 20 -5 19 -8 -15 -79 -36 -75 -86 -139 -102 -129 -11 7 -10 -27 2 -46 6 -9 5 -17 -3 -22 -8 -5 -7 -8 4 -8 28 0 31 -30 7 -50 -30 -24 -20 -32 45 -38 40 -3 63 1 93 16 47 24 89 67 103 105 26 69 4 175 -45 218 -46 41 -123 62 -178 50z m194 -96 c11 -18 20 -39 20 -48 0 -22 -59 -71 -121 -100 -84 -39 -96 -41 -109 -18 -8 17 -6 22 12 32 34 17 54 45 93 127 l34 73 25 -17 c14 -9 35 -31 46 -49z m11 -170 l-20 -45 -53 0 c-29 0 -68 -4 -86 -9 -17 -5 -32 -8 -32 -6 0 2 -3 10 -6 19 -4 10 -1 16 9 16 25 0 152 68 177 96 l25 26 3 -26 c2 -14 -6 -46 -17 -71z m-60 -75 c-43 -36 -97 -37 -109 -2 -3 10 30 17 103 20 l30 1 -24 -19z m-110 -27 c13 -15 11 -16 -11 -10 -14 4 -29 7 -33 7 -5 0 -5 5 -2 10 9 15 31 12 46 -7z"/> <path d="M2814 2135 c-8 -21 2 -45 19 -45 8 0 20 7 27 15 10 12 10 18 0 30 -7 8 -19 15 -27 15 -7 0 -16 -7 -19 -15z"/> <path d="M2958 2115 c-72 -49 -99 -164 -58 -244 20 -39 73 -91 93 -91 6 0 -4 13 -23 30 l-35 29 33 1 c17 0 32 5 32 10 0 7 -13 8 -34 5 -29 -6 -37 -3 -49 17 -8 12 -18 34 -22 47 l-7 24 27 -21 c15 -12 41 -22 57 -22 29 0 30 1 24 38 -16 105 -18 162 -6 177 21 26 6 26 -32 0z m8 -42 c-4 -16 0 -54 9 -86 19 -72 20 -67 -10 -67 -14 0 -37 11 -50 24 -21 21 -23 29 -15 57 11 36 51 99 63 99 5 0 6 -12 3 -27z"/> <path d="M1859 2113 c-12 -15 -12 -16 3 -10 15 5 16 3 6 -18 -6 -13 -20 -25 -32 -27 -16 -2 -21 -10 -21 -33 0 -33 28 -47 49 -25 8 9 6 11 -12 5 -16 -4 -24 -2 -29 10 -7 20 13 36 35 27 9 -3 13 -1 9 5 -4 6 3 14 16 18 14 4 17 8 9 12 -9 3 -10 9 -2 18 7 9 6 16 -4 24 -10 9 -17 7 -27 -6z"/> <path d="M1580 2045 l0 -55 38 1 c35 1 36 2 8 8 -17 3 -29 9 -28 14 1 4 2 11 2 16 0 5 8 12 18 14 13 4 12 5 -5 6 -16 1 -20 6 -16 20 3 12 11 17 23 14 10 -3 21 0 24 6 5 7 -5 11 -28 11 l-36 0 0 -55z"/> <path d="M1710 2024 c0 -19 5 -34 10 -34 6 0 10 14 10 32 0 36 16 28 23 -12 4 -24 4 -24 6 3 0 15 5 27 10 27 5 0 12 -12 14 -27 3 -23 4 -22 6 8 1 36 1 37 -39 37 -39 1 -40 0 -40 -34z"/> <path d="M2822 2049 c2 -6 8 -10 13 -10 5 0 11 4 13 10 2 6 -4 11 -13 11 -9 0 -15 -5 -13 -11z"/> <path d="M2380 2030 c0 -13 -7 -20 -20 -20 -11 0 -20 -4 -20 -10 0 -5 9 -10 20 -10 13 0 20 -7 20 -20 0 -11 5 -20 10 -20 6 0 10 9 10 20 0 13 7 20 20 20 11 0 20 5 20 10 0 6 -9 10 -20 10 -13 0 -20 7 -20 20 0 11 -4 20 -10 20 -5 0 -10 -9 -10 -20z"/> <path d="M2274 2029 c-7 -12 15 -31 28 -23 4 3 8 12 8 20 0 17 -26 19 -36 3z"/> <path d="M2000 1958 c0 -4 -8 -8 -18 -8 -17 0 -20 -14 -30 -122 -6 -68 -8 -125 -4 -129 4 -3 77 -11 162 -18 85 -7 180 -15 211 -18 l56 -6 7 89 c4 49 9 106 12 127 4 25 2 37 -7 37 -6 0 -17 6 -23 14 -13 16 -145 29 -165 16 -8 -4 -27 -2 -45 5 -36 15 -156 25 -156 13z m148 -24 c22 -4 23 -6 16 -112 -4 -59 -8 -108 -9 -110 -1 -1 -13 2 -26 7 -13 5 -50 13 -82 16 l-57 7 4 46 c3 26 8 73 12 105 l6 58 56 -6 c31 -3 67 -8 80 -11z m-160 -106 l-3 -103 74 -7 c41 -4 80 -13 85 -18 8 -8 -1 -9 -29 -6 -22 3 -67 8 -99 12 l-59 6 7 75 c3 42 6 91 6 110 0 18 5 33 11 33 7 0 9 -35 7 -102z m359 88 c2 -2 1 -49 -3 -105 l-7 -101 -83 3 c-48 1 -84 6 -84 12 1 38 20 187 26 196 5 8 29 10 77 5 39 -4 72 -8 74 -10z m28 -118 c-4 -57 -9 -106 -12 -110 -6 -10 -97 -9 -148 1 -34 7 -27 9 46 10 l86 1 7 61 c3 34 6 79 6 100 0 22 5 39 11 39 7 0 8 -31 4 -102z"/> <path d="M2040 1892 c0 -12 89 -21 96 -10 3 5 -4 8 -14 8 -11 0 -34 3 -51 6 -18 4 -31 2 -31 -4z"/> <path d="M2040 1840 c0 -5 21 -10 48 -9 38 1 42 2 22 9 -36 12 -70 12 -70 0z"/> <path d="M2035 1790 c3 -5 27 -10 53 -9 38 1 42 2 22 9 -37 12 -82 12 -75 0z"/> <path d="M2235 1870 c28 -12 75 -12 75 0 0 6 -21 10 -47 9 -36 0 -43 -3 -28 -9z"/> <path d="M2230 1820 c37 -12 82 -12 75 0 -3 6 -27 10 -53 9 -38 -1 -42 -2 -22 -9z"/> <path d="M2235 1770 c44 -11 65 -11 65 0 0 6 -21 9 -47 9 -43 -1 -45 -2 -18 -9z"/> <path d="M1777 1923 c-4 -3 -7 -14 -7 -24 0 -10 -13 -27 -30 -39 -21 -15 -30 -30 -30 -48 0 -29 -44 -102 -61 -102 -6 0 -8 -4 -5 -9 4 -5 -8 -32 -25 -59 -23 -37 -30 -59 -27 -88 l3 -39 50 83 c27 45 56 82 63 82 7 0 10 -5 6 -11 -4 -8 0 -9 15 -4 20 6 21 4 21 -91 l0 -97 20 26 c15 19 20 40 20 86 0 51 3 61 18 62 10 0 12 3 5 6 -16 6 -18 119 -3 128 13 8 13 48 -1 62 -8 8 -9 20 -1 41 6 17 8 33 5 36 -8 8 -28 8 -36 -1z m18 -33 c-4 -12 -9 -19 -12 -17 -3 3 -2 15 2 27 4 12 9 19 12 17 3 -3 2 -15 -2 -27z m-1 -49 c21 -23 14 -57 -14 -66 -23 -7 -36 -1 -50 25 -8 15 -6 24 10 40 25 25 32 25 54 1z m-115 -163 c-55 -87 -87 -128 -76 -97 12 36 121 202 125 191 2 -6 -20 -48 -49 -94z m70 40 c-1 -24 -3 -35 -6 -25 -4 14 -8 16 -19 6 -8 -6 -14 -8 -14 -5 0 10 30 66 35 66 3 0 4 -19 4 -42z m21 -192 c-12 -12 -14 100 -2 184 6 48 7 40 10 -59 2 -69 -1 -118 -8 -125z"/> <path d="M1744 1825 c-4 -9 -2 -21 4 -27 15 -15 44 -1 40 19 -4 23 -36 29 -44 8z m33 -21 c-9 -9 -28 6 -21 18 4 6 10 6 17 -1 6 -6 8 -13 4 -17z"/> <path d="M1877 1914 c-9 -10 4 -34 19 -34 8 0 14 9 14 20 0 19 -19 27 -33 14z"/> <path d="M537 1856 c-7 -16 1 -26 20 -26 7 0 13 9 13 20 0 23 -25 27 -33 6z"/> <path d="M1600 1800 c0 -11 7 -20 15 -20 8 0 15 9 15 20 0 11 -7 20 -15 20 -8 0 -15 -9 -15 -20z"/> <path d="M2820 1813 c-62 -22 -81 -103 -35 -148 28 -29 70 -32 103 -9 43 30 21 59 -31 40 -24 -9 -31 -8 -43 8 -8 11 -14 23 -14 27 0 17 33 39 50 34 20 -6 42 15 32 31 -9 15 -43 24 -62 17z m50 -23 c0 -5 -11 -10 -24 -10 -54 0 -76 -66 -32 -95 19 -13 29 -14 45 -6 25 14 31 14 31 1 0 -18 -43 -28 -73 -18 -50 18 -63 75 -25 115 22 23 78 33 78 13z"/> <path d="M356 1794 c-11 -10 -14 -24 -10 -38 11 -35 53 -114 64 -121 18 -11 42 17 37 42 -2 13 0 23 5 23 16 0 -46 105 -63 108 -9 2 -24 -4 -33 -14z m55 -25 c8 -15 8 -19 0 -15 -15 10 -14 5 8 -45 11 -24 17 -47 15 -51 -9 -14 -23 -9 -35 13 -8 15 -8 19 0 15 15 -9 13 3 -4 34 -10 19 -11 28 -2 39 10 11 9 13 -3 9 -9 -3 -14 -15 -13 -29 2 -24 2 -24 -9 -2 -22 45 19 75 43 32z"/> <path d="M1525 1797 c-23 -17 -14 -47 15 -47 26 0 37 27 18 46 -12 12 -17 12 -33 1z m27 -22 c0 -5 -5 -11 -11 -13 -6 -2 -11 4 -11 13 0 9 5 15 11 13 6 -2 11 -8 11 -13z"/> <path d="M1015 1777 c-23 -17 -14 -47 15 -47 26 0 37 27 18 46 -12 12 -17 12 -33 1z m25 -22 c0 -8 -4 -15 -10 -15 -5 0 -10 7 -10 15 0 8 5 15 10 15 6 0 10 -7 10 -15z"/> <path d="M2615 1773 c-11 -3 -23 -10 -26 -15 -7 -11 19 -138 31 -151 4 -5 29 -5 54 -2 64 10 87 42 64 88 -8 18 -20 44 -26 60 -10 22 -17 27 -44 26 -18 -1 -42 -4 -53 -6z m80 -19 c9 -9 14 -22 11 -30 -3 -7 2 -18 10 -24 20 -17 18 -57 -4 -69 -9 -5 -33 -11 -51 -13 l-35 -3 -12 60 c-19 90 -23 84 53 94 6 0 19 -6 28 -15z"/> <path d="M2637 1743 c-11 -3 -16 -10 -13 -20 3 -8 6 -17 6 -19 0 -11 39 -2 50 11 22 26 2 40 -43 28z"/> <path d="M2663 1683 c-15 -3 -23 -12 -23 -24 0 -17 6 -20 33 -17 24 2 32 8 32 22 0 21 -9 25 -42 19z m27 -23 c-20 -13 -40 -13 -40 0 0 6 12 10 28 10 21 0 24 -2 12 -10z"/> <path d="M1139 1769 c-1 -2 -11 -59 -23 -127 -15 -84 -19 -125 -12 -131 13 -9 328 -62 335 -56 5 6 41 213 41 240 0 22 14 19 -312 73 -16 2 -28 3 -29 1z m326 -70 c6 -6 -30 -217 -38 -226 -6 -6 -306 42 -314 51 -4 4 7 76 28 182 l10 51 154 -27 c85 -15 157 -29 160 -31z"/> <path d="M1151 1678 c-21 -126 -23 -148 -15 -148 5 0 61 -9 124 -20 170 -29 155 -36 175 76 9 52 15 97 13 100 -3 3 -269 54 -284 54 -1 0 -7 -28 -13 -62z m159 22 c63 -11 118 -20 121 -20 5 0 -20 -171 -26 -178 -1 -2 -62 7 -134 20 -107 18 -130 25 -127 38 3 8 10 48 16 88 7 41 17 72 23 72 7 0 64 -9 127 -20z"/> <path d="M1298 1648 c-8 -13 -18 -32 -24 -42 -16 -31 -33 -31 -31 0 3 38 -14 39 -51 5 l-31 -30 34 -7 c19 -3 46 -3 59 0 14 3 26 1 28 -5 2 -6 17 -12 34 -13 17 -2 36 -6 41 -9 14 -9 43 2 43 15 0 5 -9 6 -20 3 -14 -4 -20 -2 -20 9 0 8 5 18 10 21 6 3 10 1 10 -4 0 -6 5 -11 10 -11 6 0 10 7 10 15 0 24 -30 18 -57 -11 -13 -14 -27 -23 -31 -19 -4 4 2 14 13 22 13 10 16 17 8 20 -10 3 -9 10 2 27 8 12 12 26 8 29 -13 13 -33 7 -45 -15z m22 -13 c-7 -9 -15 -13 -18 -10 -3 2 1 11 8 20 7 9 15 13 18 10 3 -2 -1 -11 -8 -20z m-92 -35 c-11 -18 -28 -27 -28 -16 0 16 14 36 26 36 12 0 12 -4 2 -20z m73 -23 c-8 -8 -11 -7 -11 4 0 9 3 19 7 23 4 4 9 2 11 -4 3 -7 -1 -17 -7 -23z"/> <path d="M2462 1741 c-20 -12 -53 -162 -40 -178 16 -19 27 -16 39 11 15 31 55 42 79 21 18 -16 50 -11 50 9 0 9 -106 146 -113 146 -1 0 -8 -4 -15 -9z m66 -74 c43 -55 52 -87 15 -55 -24 20 -83 5 -90 -23 -5 -19 -23 -27 -23 -10 0 32 34 151 43 148 5 -1 30 -29 55 -60z"/> <path d="M2466 1664 c-9 -33 -5 -37 27 -29 25 7 26 8 10 31 -20 31 -29 30 -37 -2z"/> <path d="M794 1713 c-14 -44 -44 -71 -44 -39 0 21 -17 29 -46 22 -15 -4 -24 -14 -24 -26 0 -27 -20 -25 -45 5 -19 24 -22 25 -53 13 -27 -10 -32 -17 -26 -33 3 -11 8 -54 10 -95 2 -41 7 -96 12 -122 7 -37 6 -48 -5 -52 -26 -11 3 -146 32 -146 8 0 15 -7 15 -15 0 -34 41 -37 166 -15 156 28 146 23 172 74 19 36 22 52 17 91 -5 27 -17 57 -30 71 -15 16 -26 44 -30 77 -4 29 -13 66 -20 82 -8 17 -17 51 -21 78 -6 46 -7 47 -40 47 -24 0 -36 -5 -40 -17z m56 -10 c0 -28 -16 -47 -34 -40 -21 8 -20 33 2 46 25 15 32 13 32 -6z m-220 -43 c8 -15 6 -21 -9 -30 -16 -8 -23 -6 -35 12 -12 17 -13 24 -3 30 20 13 36 9 47 -12z m110 10 c0 -5 -7 -10 -15 -10 -8 0 -18 0 -22 -1 -4 0 -9 4 -11 10 -2 6 8 11 22 11 14 0 26 -4 26 -10z m113 -40 c32 -25 40 -51 68 -218 21 -121 21 -134 7 -148 -9 -9 -61 -24 -119 -35 -124 -22 -153 -23 -168 -5 -12 15 -61 263 -61 312 0 71 67 109 201 113 33 1 54 -5 72 -19z m110 -277 c4 -18 3 -35 -2 -37 -8 -5 -21 39 -21 72 0 26 17 0 23 -35z m-363 -32 c0 -5 3 -24 6 -42 5 -23 3 -31 -3 -24 -15 14 -25 75 -13 75 6 0 10 -4 10 -9z"/> <path d="M712 1626 c-87 -17 -118 -48 -115 -114 1 -26 7 -59 12 -72 8 -19 9 -8 5 45 -6 65 -4 72 19 93 28 27 136 50 179 39 31 -8 46 -31 64 -102 l13 -50 -5 54 c-3 30 -10 63 -15 74 -10 17 -68 48 -86 46 -4 -1 -36 -7 -71 -13z"/> <path d="M708 1563 c-24 -4 -28 -9 -28 -35 l0 -30 48 6 c75 11 80 14 74 41 -5 26 -21 29 -94 18z m79 -20 c5 -15 -80 -33 -89 -19 -9 14 -5 17 34 26 39 9 50 8 55 -7z"/> <path d="M756 1410 c-54 -10 -102 -24 -106 -30 -12 -19 13 -134 30 -137 8 -2 60 5 115 14 94 17 100 20 103 43 3 33 -20 123 -33 126 -5 1 -55 -6 -109 -16z m112 -12 c-3 -7 -47 -20 -99 -29 -118 -22 -109 -21 -109 -5 0 9 27 18 83 28 105 20 130 21 125 6z m-18 -40 c0 -9 3 -8 10 2 12 19 16 13 23 -32 l6 -37 -57 -11 c-31 -6 -76 -15 -100 -19 -47 -10 -62 3 -62 52 0 25 1 25 173 56 4 0 7 -5 7 -11z"/> <path d="M950 1710 c0 -15 5 -20 18 -18 9 2 17 10 17 18 0 8 -8 16 -17 18 -13 2 -18 -3 -18 -18z"/> <path d="M1534 1719 c-10 -17 13 -36 27 -22 12 12 4 33 -11 33 -5 0 -12 -5 -16 -11z"/> <path d="M10 1705 c0 -8 9 -15 20 -15 11 0 20 7 20 15 0 8 -9 15 -20 15 -11 0 -20 -7 -20 -15z"/> <path d="M232 1708 c-15 -20 -44 -129 -38 -144 3 -8 13 -14 22 -14 45 0 103 120 75 154 -16 19 -45 21 -59 4z m52 -46 c-9 -38 -14 -40 -14 -8 0 23 -4 27 -20 23 -22 -6 -26 3 -8 21 20 20 49 -4 42 -36z m-36 -57 c-17 -50 -38 -58 -38 -13 0 25 3 29 10 18 6 -9 10 -10 10 -3 0 6 5 24 12 40 17 41 22 6 6 -42z"/> <path d="M84 1685 c-4 -9 -2 -21 4 -27 15 -15 44 -1 40 19 -4 23 -36 29 -44 8z"/> <path d="M1930 1617 c0 -17 -10 -52 -23 -77 -13 -25 -29 -70 -36 -101 -8 -40 -17 -58 -30 -62 -23 -6 -50 -122 -32 -140 6 -6 11 -18 11 -27 0 -37 26 -51 150 -80 69 -16 130 -30 137 -30 7 0 24 11 38 24 15 14 31 26 36 28 5 2 16 28 24 58 11 42 12 60 4 76 -8 17 -7 38 4 88 8 36 13 75 10 86 -3 11 2 38 11 60 21 54 21 56 -15 71 -30 12 -33 11 -56 -16 -25 -28 -38 -26 -45 10 -4 25 -55 34 -64 11 -11 -28 -32 -17 -38 19 -7 33 -9 35 -46 35 -38 0 -40 -1 -40 -33z m66 9 c1 0 5 -11 8 -23 6 -20 4 -23 -18 -23 -14 0 -26 3 -26 8 0 4 -3 18 -7 31 -5 21 -3 23 18 16 13 -4 25 -8 25 -9z m103 -35 c19 -12 5 -30 -19 -24 -21 5 -25 15 -13 26 8 9 15 9 32 -2z m126 -20 c3 -5 1 -12 -5 -16 -5 -3 -7 -17 -4 -31 4 -15 2 -24 -6 -24 -7 0 -10 7 -6 16 3 8 2 13 -2 10 -4 -2 -16 2 -26 10 -16 11 -17 16 -6 29 14 17 46 20 55 6z m-130 -20 c78 -22 115 -54 115 -100 0 -32 -55 -273 -70 -308 -12 -30 -33 -29 -167 2 -125 30 -136 35 -135 66 0 32 61 288 73 310 27 52 76 60 184 30z m-256 -248 c-2 -32 -15 -68 -21 -58 -8 14 2 75 13 75 5 0 9 -8 8 -17z m351 -104 c-10 -34 -17 -45 -25 -38 -8 9 16 80 25 74 5 -3 5 -19 0 -36z"/> <path d="M1947 1529 c-16 -12 -33 -41 -42 -71 -18 -61 -17 -58 -6 -58 5 0 12 19 16 42 8 46 52 98 82 98 45 -1 138 -31 160 -52 22 -20 24 -29 19 -68 -3 -25 -9 -56 -12 -69 -5 -16 -4 -22 4 -17 12 7 27 89 23 121 -4 33 -44 65 -102 80 -74 20 -112 19 -142 -6z"/> <path d="M1996 1468 c-3 -13 -6 -26 -6 -30 0 -4 25 -12 56 -18 46 -10 58 -9 65 2 17 26 4 42 -46 55 -64 16 -62 17 -69 -9z m96 -14 c5 -3 8 -11 8 -18 0 -10 -9 -11 -45 -3 -28 6 -45 16 -45 25 0 11 8 13 37 7 21 -4 41 -9 45 -11z"/> <path d="M1907 1343 c-3 -5 -12 -35 -21 -68 -12 -47 -13 -62 -3 -71 18 -16 207 -58 217 -48 14 14 38 121 31 133 -4 6 -54 23 -110 36 -117 29 -108 27 -114 18z m121 -35 c58 -14 92 -27 92 -35 0 -16 3 -17 -110 11 -51 13 -96 28 -98 35 -5 16 11 14 116 -11z m-19 -38 c41 -10 78 -25 82 -32 7 -10 9 -10 9 1 0 8 3 12 6 9 3 -3 2 -22 -1 -42 -6 -27 -12 -36 -27 -36 -19 0 -180 39 -186 45 -2 2 0 19 3 39 8 42 12 43 114 16z"/> <path d="M30 1606 c0 -8 -8 -16 -17 -18 -13 -3 -6 -10 22 -22 49 -21 80 -49 96 -87 10 -25 9 -32 -6 -49 -20 -22 -35 -26 -35 -9 0 5 6 7 13 4 6 -4 1 3 -12 14 -13 12 -18 21 -12 21 6 0 11 9 11 20 0 22 -19 27 -37 9 -8 -8 -17 -7 -34 2 l-24 12 19 -22 c20 -22 20 -22 0 -16 -18 6 -18 6 -1 -8 10 -8 27 -13 37 -10 14 4 20 0 20 -11 0 -9 9 -25 20 -36 19 -19 19 -19 -16 -62 -56 -67 -57 -68 -50 -18 5 39 -6 84 -16 70 -9 -12 5 -120 15 -120 7 0 26 17 44 37 l32 38 -2 -33 c-2 -28 -8 -36 -51 -57 -28 -14 -42 -25 -32 -25 43 0 116 61 135 113 28 72 -5 172 -69 215 -50 33 -50 49 0 21 120 -67 134 -233 28 -324 -23 -19 -56 -38 -75 -41 -18 -3 -33 -10 -33 -15 0 -12 -2 -12 53 7 31 11 60 31 86 61 90 102 68 251 -48 324 -51 33 -61 35 -61 15z m45 -135 c-3 -6 -14 -11 -23 -11 -15 1 -15 2 2 15 21 16 32 13 21 -4z m70 -88 c-4 -29 -11 -39 -25 -40 -19 -2 -19 0 -5 28 9 16 13 29 9 29 -4 0 -1 7 6 15 18 22 23 12 15 -32z"/> <path d="M1000 1571 c0 -11 5 -23 10 -26 8 -5 7 -11 0 -20 -7 -8 -10 -22 -7 -32 4 -16 6 -16 12 3 4 12 16 26 28 31 l22 10 -22 7 c-13 4 -23 14 -23 21 0 8 -4 17 -10 20 -5 3 -10 -3 -10 -14z"/> <path d="M2310 1575 c-15 -18 1 -355 19 -400 12 -29 13 -29 24 -10 7 12 13 69 14 140 1 66 5 137 9 158 4 27 1 50 -11 77 -20 44 -38 55 -55 35z m38 -98 c2 -52 0 -67 -11 -67 -9 0 -16 16 -21 46 -10 78 -8 96 12 92 14 -3 18 -16 20 -71z m2 -177 c0 -90 -14 -107 -24 -27 -10 83 -8 107 9 107 12 0 15 -16 15 -80z"/> <path d="M2905 1574 c-44 -22 -76 -55 -91 -91 -33 -76 -3 -184 63 -224 25 -15 33 -27 30 -40 -4 -14 0 -19 13 -19 29 0 50 -11 50 -26 0 -9 -12 -14 -35 -14 -19 0 -35 -4 -35 -10 0 -5 23 -10 50 -10 28 0 50 5 50 10 0 6 -4 10 -10 10 -5 0 -10 7 -10 15 0 8 5 15 10 15 6 0 10 5 10 10 0 6 -15 10 -34 10 -52 0 -55 20 -4 21 24 1 32 3 18 6 -56 9 -70 14 -70 28 0 8 4 15 9 15 5 0 12 13 16 30 5 25 2 34 -22 54 -35 31 -82 43 -94 25 -7 -11 -9 -11 -8 1 0 8 29 39 65 69 35 30 64 59 64 64 0 5 -9 11 -20 14 -32 8 -23 21 23 33 62 16 65 18 27 19 -19 1 -48 -6 -65 -15z m-4 -45 c16 -8 18 -13 8 -25 -6 -8 -16 -14 -21 -14 -5 0 -21 -13 -35 -30 -13 -16 -29 -30 -34 -30 -12 0 16 68 38 92 19 21 19 21 44 7z m-20 -162 c38 -25 46 -53 24 -81 -15 -19 -16 -19 -45 9 -22 21 -30 38 -30 62 0 39 6 40 51 10z"/> <path d="M19 1555 c-1 -3 -2 -8 -3 -12 -1 -5 -5 -14 -9 -20 -6 -9 -2 -13 12 -13 24 0 33 13 25 34 -6 15 -22 22 -25 11z"/> <path d="M972 1541 c-11 -7 -10 -10 3 -15 23 -9 25 -8 25 9 0 17 -9 19 -28 6z"/> <path d="M2585 1530 c-8 -14 3 -30 21 -30 8 0 14 9 14 20 0 21 -24 28 -35 10z"/> <path d="M370 1506 c0 -8 4 -17 9 -20 11 -7 33 18 24 27 -12 12 -33 7 -33 -7z"/> <path d="M2657 1487 c-22 -16 -13 -47 14 -47 25 0 36 28 17 46 -11 12 -17 12 -31 1z m25 -22 c0 -5 -5 -11 -11 -13 -6 -2 -11 4 -11 13 0 9 5 15 11 13 6 -2 11 -8 11 -13z"/> <path d="M314 1465 c-7 -18 3 -35 21 -35 18 0 26 25 12 39 -15 15 -27 14 -33 -4z"/> <path d="M2557 1474 c-8 -8 1 -24 14 -24 5 0 9 7 9 15 0 15 -12 20 -23 9z"/> <path d="M465 1461 c-8 -15 3 -31 21 -31 9 0 14 7 12 17 -4 20 -24 28 -33 14z"/> <path d="M2961 1446 c-16 -29 -7 -62 19 -69 26 -7 25 1 -1 22 l-20 16 21 28 c16 20 18 27 7 27 -7 0 -19 -11 -26 -24z"/> <path d="M1154 1423 c-12 -57 -14 -59 -36 -23 -12 19 -23 37 -25 39 -2 3 -8 0 -15 -7 -8 -8 -4 -27 15 -72 15 -34 27 -69 27 -79 0 -10 -15 -35 -33 -57 -41 -48 -47 -63 -36 -91 6 -17 16 -23 37 -23 41 0 52 17 52 81 0 32 4 60 10 64 12 7 36 -30 46 -70 4 -16 11 -36 17 -42 16 -22 55 -15 73 12 15 23 15 27 0 50 -9 14 -22 25 -30 25 -7 0 -29 15 -48 33 l-35 33 8 68 c5 38 6 73 3 77 -10 17 -24 9 -30 -18z m12 -91 c-13 -12 -16 8 -9 49 l8 44 3 -44 c2 -23 1 -46 -2 -49z m-27 5 c46 -76 47 -79 25 -70 -9 3 -29 35 -45 70 -45 100 -41 100 20 0z m93 -133 c-20 -15 -11 -49 13 -49 15 0 20 7 20 27 -1 14 3 24 7 22 14 -9 9 -41 -8 -55 -21 -17 -46 -1 -56 37 -3 16 -10 40 -14 54 l-7 24 30 -24 c24 -21 27 -27 15 -36z m-107 -15 c0 -37 -5 -55 -16 -62 -23 -14 -49 -2 -49 24 0 19 46 86 60 88 3 1 5 -22 5 -50z m133 -13 c3 -12 -1 -17 -10 -14 -7 3 -15 13 -16 22 -3 12 1 17 10 14 7 -3 15 -13 16 -22z"/> <path d="M1074 1176 c-9 -24 4 -48 23 -44 12 2 18 12 18 28 0 29 -32 41 -41 16z m36 -22 c0 -8 -7 -14 -15 -14 -15 0 -21 21 -9 33 10 9 24 -2 24 -19z"/> <path d="M1691 1437 c-6 -8 -8 -17 -4 -20 3 -4 12 1 19 11 12 16 13 16 20 -1 3 -10 2 -23 -5 -30 -13 -13 -15 -27 -3 -27 13 0 32 48 26 65 -8 19 -38 20 -53 2z"/> <path d="M1550 1415 c-7 -9 -9 -19 -5 -23 4 -4 10 -1 12 6 6 15 33 16 33 1 0 -7 -9 -27 -21 -45 l-21 -34 36 0 c20 0 36 5 36 11 0 6 -9 9 -20 6 -24 -6 -24 -4 -4 34 12 24 13 34 3 45 -15 18 -33 18 -49 -1z"/> <path d="M1393 1403 c-18 -7 -16 -78 3 -97 21 -22 54 -4 54 29 0 56 -22 83 -57 68z m37 -43 c0 -16 0 -33 1 -37 0 -5 -6 -9 -14 -11 -14 -3 -30 53 -20 71 12 20 33 5 33 -23z"/> <path d="M1318 1383 c-21 -23 -24 -40 -4 -24 11 9 15 5 19 -21 2 -19 0 -36 -7 -40 -6 -4 1 -8 17 -8 15 0 27 5 27 10 0 6 -4 10 -8 10 -5 0 -13 21 -18 46 -9 45 -9 46 -26 27z"/> <path d="M1640 1390 c-12 -8 -11 -10 8 -10 12 0 22 5 22 10 0 13 -11 13 -30 0z"/> <path d="M2460 1370 c-12 -12 -20 -33 -20 -52 0 -29 1 -30 18 -15 27 25 39 20 15 -5 -11 -13 -26 -33 -32 -45 -15 -30 -13 -103 4 -133 12 -22 11 -27 -2 -42 -17 -19 -4 -25 14 -7 7 7 21 4 47 -12 29 -17 47 -20 89 -16 40 3 55 1 65 -12 12 -14 13 -13 8 9 -4 18 0 29 13 37 25 16 51 74 51 115 0 37 -37 109 -60 116 -10 3 -7 -3 7 -19 12 -13 27 -37 33 -54 12 -31 5 -101 -11 -111 -6 -3 -7 5 -2 23 19 70 -6 124 -71 157 -33 16 -43 17 -78 7 -100 -30 -128 -141 -54 -210 49 -46 123 -45 174 1 14 14 23 17 20 9 -7 -25 -53 -52 -94 -57 -109 -14 -191 111 -134 204 39 64 115 87 184 57 14 -6 17 -5 12 3 -4 7 -3 12 2 12 13 0 72 -68 72 -83 1 -19 30 25 30 45 0 48 -87 89 -108 51 -7 -11 -15 -14 -28 -8 -13 5 -15 9 -6 12 15 6 6 23 -13 23 -8 0 -12 -6 -9 -14 4 -10 -6 -15 -33 -18 -21 -3 -47 -8 -58 -12 -20 -8 -20 -7 -1 8 11 9 28 16 38 16 24 0 23 17 -1 30 -30 16 -59 12 -81 -10z m53 -16 c-17 -7 -34 -18 -38 -24 -8 -13 -25 -13 -25 -1 0 20 33 41 63 40 l32 -1 -32 -14z m215 -27 c6 -5 12 -20 12 -34 0 -23 -1 -22 -30 10 -16 19 -30 37 -30 41 0 7 31 -4 48 -17z m-72 -61 c28 -28 34 -42 34 -76 0 -57 -50 -110 -105 -110 -74 0 -114 40 -115 113 0 42 4 53 31 78 25 23 40 29 76 29 38 0 50 -5 79 -34z"/> <path d="M2572 1237 c-2 -40 -6 -49 -27 -59 -14 -6 -25 -15 -25 -20 0 -5 18 1 40 12 21 11 52 20 69 20 18 0 31 6 35 16 9 24 0 29 -19 10 -9 -9 -27 -16 -40 -16 -21 0 -24 6 -28 43 l-4 42 -1 -48z"/> <path d="M273 1369 c-13 -5 -23 -14 -23 -22 0 -7 -7 -67 -15 -132 -8 -66 -15 -125 -15 -132 0 -11 15 -14 123 -28 31 -4 47 -11 47 -21 0 -8 9 -14 20 -14 11 0 20 7 20 15 0 8 7 15 15 15 8 0 15 6 15 13 0 7 7 67 15 132 18 148 18 145 0 145 -8 0 -15 4 -15 8 0 4 -20 7 -46 7 -25 -1 -47 2 -49 5 -3 4 -17 6 -32 4 -15 -1 -30 1 -33 5 -3 5 -15 5 -27 0z m45 -33 c7 -4 12 -2 12 5 0 7 4 8 13 2 6 -5 24 -8 40 -7 15 2 27 -1 27 -5 0 -4 14 -6 30 -5 35 2 35 8 19 -153 -7 -62 -16 -113 -21 -113 -5 0 -7 8 -4 18 5 19 9 92 7 135 -3 66 -34 2 -46 -97 l-7 -48 -71 7 c-40 4 -74 9 -76 11 -4 4 17 229 24 250 4 12 34 12 53 0z m107 -231 c-3 -36 -11 -65 -16 -65 -8 0 -3 96 7 129 11 33 16 -3 9 -64z"/> <path d="M290 1282 c0 -6 32 -13 71 -17 80 -8 107 0 32 10 -26 3 -60 9 -75 11 -16 3 -28 1 -28 -4z"/> <path d="M280 1240 c0 -8 101 -22 109 -15 8 9 -3 12 -56 17 -29 3 -53 2 -53 -2z"/> <path d="M280 1199 c0 -5 8 -9 18 -9 9 0 35 -3 57 -6 27 -5 37 -3 30 3 -13 13 -105 23 -105 12z"/> <path d="M270 1160 c0 -8 101 -22 109 -15 8 9 -3 12 -56 17 -29 3 -53 2 -53 -2z"/> <path d="M270 1119 c0 -5 8 -9 18 -9 9 0 35 -3 57 -6 27 -5 37 -3 30 3 -13 13 -105 23 -105 12z"/> <path d="M1474 1354 c1 -16 8 -21 28 -21 22 0 25 3 17 13 -6 7 -8 17 -5 22 3 6 -5 9 -18 8 -17 -1 -23 -7 -22 -22z"/> <path d="M1635 1360 c-3 -5 3 -10 14 -10 12 0 21 5 21 10 0 6 -6 10 -14 10 -8 0 -18 -4 -21 -10z"/> <path d="M1380 1232 c0 -16 41 -52 60 -52 11 0 20 -4 20 -9 0 -5 -19 -7 -42 -4 -33 5 -44 2 -55 -12 -30 -42 -1 -159 45 -184 23 -12 120 -5 139 10 7 7 20 36 29 65 27 94 -13 157 -82 125 -19 -8 -24 -8 -24 4 0 7 7 20 15 29 8 8 11 17 6 20 -5 3 -12 -2 -15 -11 -6 -14 -9 -14 -22 5 -15 21 -74 32 -74 14z m60 -17 c7 -9 11 -18 8 -20 -8 -9 -36 5 -42 21 -7 19 18 18 34 -1z m112 -62 c22 -20 23 -69 2 -122 -17 -44 -26 -49 -96 -50 -42 -1 -48 2 -66 31 -42 68 -41 133 2 144 13 3 34 1 45 -5 16 -9 27 -8 48 3 36 20 43 19 65 -1z"/> <path d="M1384 1125 c-8 -20 5 -85 16 -85 12 0 12 0 -2 40 -9 29 -9 35 7 47 17 12 17 13 2 13 -10 0 -20 -7 -23 -15z"/> <path d="M1650 1215 c-11 -13 -9 -24 10 -68 29 -64 44 -81 63 -74 24 9 25 62 3 109 -23 47 -53 60 -76 33z m51 -12 c12 -14 12 -16 0 -8 -9 5 -19 2 -28 -10 -12 -18 -13 -18 -13 1 0 36 19 44 41 17z m12 -58 c21 -44 21 -55 2 -55 -15 0 -19 11 -16 39 2 7 -1 11 -6 8 -4 -3 -8 6 -8 19 0 33 8 30 28 -11z"/> <path d="M0 1150 c0 -5 13 -10 30 -10 17 0 30 5 30 10 0 6 -13 10 -30 10 -17 0 -30 -4 -30 -10z"/> <path d="M567 1138 c-4 -16 -14 -28 -22 -28 -8 0 -15 -4 -15 -10 0 -5 7 -10 15 -10 9 0 19 -10 24 -22 l8 -23 7 22 c4 11 17 24 29 28 22 7 22 8 1 12 -11 2 -25 16 -30 31 l-10 27 -7 -27z"/> <path d="M145 1140 c-4 -6 -3 -16 3 -22 6 -6 12 -6 17 2 4 6 3 16 -3 22 -6 6 -12 6 -17 -2z"/> <path d="M884 1139 c-3 -6 -1 -16 5 -22 8 -8 11 -6 11 6 0 23 9 21 50 -12 l35 -29 -40 -7 c-22 -4 -49 -13 -60 -19 -19 -10 -165 -16 -165 -6 0 3 14 21 30 40 22 26 30 30 30 18 0 -10 5 -18 10 -18 16 0 12 30 -5 37 -21 7 -43 -14 -83 -81 -31 -50 -33 -58 -22 -90 17 -51 68 -62 127 -26 25 15 34 29 39 60 8 47 19 52 28 10 12 -65 134 -79 163 -19 19 39 3 72 -56 123 -54 45 -83 56 -97 35z m140 -95 c21 -54 -4 -84 -68 -84 -61 0 -101 65 -53 88 36 17 114 15 121 -4z m-194 -44 c0 -40 -34 -70 -80 -70 -43 0 -60 14 -60 52 0 35 22 47 88 48 51 0 52 -1 52 -30z"/> <path d="M950 1040 c0 -5 -6 -7 -13 -4 -8 3 -20 -2 -27 -11 -15 -18 0 -20 20 -2 8 6 6 2 -4 -10 -11 -13 -14 -23 -8 -23 6 0 20 14 32 30 12 17 17 30 11 30 -6 0 -11 -4 -11 -10z"/> <path d="M731 989 c-13 -17 -21 -33 -18 -35 2 -3 16 11 31 31 15 19 23 35 18 35 -4 0 -18 -14 -31 -31z"/> <path d="M1885 1091 c-6 -11 9 -23 19 -14 9 9 7 23 -3 23 -6 0 -12 -4 -16 -9z"/> <path d="M2207 1090 c-44 -13 -95 -57 -118 -102 -32 -62 -24 -154 17 -205 95 -120 266 -105 335 29 77 150 -72 326 -234 278z m115 -15 c11 -5 6 -23 -25 -83 -40 -80 -72 -122 -93 -122 -15 0 -34 75 -34 134 0 35 5 48 22 60 22 16 101 22 130 11z m98 -80 c11 -18 20 -40 20 -49 0 -21 -69 -71 -147 -107 -74 -34 -79 -35 -86 -10 -3 12 7 27 31 46 21 17 46 53 64 94 41 90 45 94 74 75 13 -9 33 -31 44 -49z m-266 26 c-6 -27 6 -103 21 -144 6 -13 2 -17 -19 -17 -33 0 -80 44 -72 66 3 9 6 21 6 28 0 13 56 96 65 96 2 0 2 -13 -1 -29z m287 -168 c-6 -21 -15 -44 -20 -52 -11 -18 -172 -35 -186 -19 -7 7 -6 12 4 16 47 17 170 85 187 103 24 27 30 8 15 -48z m-289 -6 c34 -2 48 -12 48 -34 0 -9 -16 -13 -46 -13 -42 0 -46 2 -60 35 -19 46 -18 52 5 31 11 -10 35 -19 53 -19z m68 -66 c0 -5 12 -24 28 -42 20 -25 23 -31 9 -26 -10 4 -26 7 -34 7 -13 0 -13 3 -3 15 14 17 0 21 -17 4 -9 -9 -20 -5 -45 12 l-33 24 30 6 c46 10 65 10 65 0z m150 -31 c-33 -26 -77 -35 -95 -20 -31 26 -11 35 80 38 l40 2 -25 -20z"/> <path d="M1812 1073 c2 -10 10 -18 18 -18 8 0 16 8 18 18 2 12 -3 17 -18 17 -15 0 -20 -5 -18 -17z"/> <path d="M2770 1071 c0 -11 5 -23 10 -26 8 -5 7 -11 0 -20 -7 -8 -10 -22 -7 -32 3 -15 6 -13 15 10 6 15 19 27 29 28 15 0 14 2 -4 11 -13 6 -23 17 -23 24 0 7 -4 16 -10 19 -5 3 -10 -3 -10 -14z"/> <path d="M0 1071 c0 -6 5 -11 12 -11 9 0 9 -3 0 -12 -17 -17 -15 -33 3 -18 16 13 24 7 127 -85 l48 -43 -86 -96 c-48 -53 -90 -93 -95 -90 -5 3 -9 -2 -9 -10 0 -9 4 -16 9 -16 8 0 155 156 189 201 10 14 -2 28 -84 100 -101 88 -114 98 -114 80z"/> <path d="M1151 1056 c-12 -14 -5 -26 16 -26 15 0 18 26 4 34 -5 3 -14 0 -20 -8z"/> <path d="M2891 958 c-100 -112 -108 -123 -93 -143 14 -20 183 -168 186 -164 2 2 7 15 10 29 6 22 6 23 -7 8 -12 -15 -21 -10 -95 58 -78 72 -99 104 -69 104 8 0 49 -31 93 -69 43 -39 81 -67 84 -65 3 3 -6 15 -20 26 -14 11 -47 40 -73 65 -55 52 -58 41 37 147 32 37 57 69 54 72 -3 3 -18 -10 -33 -28 -65 -78 -126 -140 -132 -135 -3 4 34 49 82 102 48 52 85 98 82 101 -2 3 -50 -46 -106 -108z"/> <path d="M2742 1041 c-11 -7 -10 -10 3 -15 23 -9 25 -8 25 9 0 17 -9 19 -28 6z"/> <path d="M297 1013 c-13 -12 -7 -44 8 -49 24 -10 47 14 34 37 -10 19 -30 25 -42 12z m31 -24 c-2 -6 -8 -10 -13 -10 -5 0 -11 4 -13 10 -2 6 4 11 13 11 9 0 15 -5 13 -11z"/> <path d="M596 1001 c-9 -10 -14 -24 -11 -32 3 -8 -11 -41 -29 -74 -27 -47 -36 -56 -41 -42 -5 12 4 31 30 63 20 25 35 47 32 50 -2 3 -18 -12 -35 -32 -29 -35 -32 -36 -63 -25 -46 16 -80 14 -115 -8 -68 -41 -65 -126 5 -143 27 -7 32 -13 27 -29 -3 -10 -9 -28 -12 -38 -4 -14 3 -28 21 -47 38 -37 87 -29 137 25 48 51 58 99 31 154 l-19 40 38 71 c20 39 38 74 38 79 0 13 -17 7 -34 -12z m-108 -109 c10 -7 8 -18 -8 -54 -11 -25 -27 -51 -35 -58 -16 -14 -21 -60 -6 -60 9 0 17 9 76 90 l29 40 14 -26 c9 -17 12 -44 9 -73 -7 -59 -59 -111 -111 -111 -47 0 -62 21 -48 67 13 41 3 63 -29 63 -25 0 -49 27 -49 54 0 13 12 35 26 50 21 21 36 26 73 26 25 0 52 -4 59 -8z m22 -61 c0 -5 -7 -14 -15 -21 -16 -14 -18 -10 -9 14 6 17 24 22 24 7z m-40 -60 c0 -5 -7 -14 -15 -21 -16 -14 -18 -10 -9 14 6 17 24 22 24 7z"/> <path d="M443 883 c-21 -8 -15 -43 6 -43 11 0 23 5 27 11 8 14 -17 38 -33 32z"/> <path d="M364 855 c-4 -9 -2 -21 4 -27 15 -15 44 -1 40 19 -4 23 -36 29 -44 8z"/> <path d="M517 786 c-7 -18 11 -36 29 -29 21 8 17 43 -5 43 -10 0 -21 -6 -24 -14z"/> <path d="M493 714 c-8 -22 18 -37 36 -20 7 8 10 19 7 25 -10 16 -36 13 -43 -5z"/> <path d="M434 685 c-4 -9 -2 -21 4 -27 15 -15 44 -1 40 19 -4 23 -36 29 -44 8z"/> <path d="M1828 1006 c-91 -6 -169 -14 -172 -17 -4 -3 11 -18 33 -32 34 -23 40 -32 46 -76 4 -28 9 -51 12 -51 3 0 18 9 34 20 l28 21 42 -31 c23 -16 47 -30 53 -30 6 0 36 44 66 97 68 119 65 113 43 111 -10 0 -93 -6 -185 -12z m20 -37 c-102 -28 -109 -29 -133 -13 -14 9 -24 19 -21 21 5 5 166 20 226 21 22 0 -4 -10 -72 -29z m135 -11 c-60 -100 -79 -128 -85 -128 -4 0 -28 14 -53 32 l-45 32 72 33 c39 18 68 36 65 39 -8 9 -161 -69 -165 -84 -2 -8 2 -10 15 -5 10 3 15 3 12 -1 -4 -4 -16 -8 -28 -11 -18 -3 -21 1 -21 29 0 32 1 33 82 56 44 13 94 24 110 25 15 1 31 5 35 8 19 19 22 3 6 -25z"/> <path d="M12 988 c-16 -16 -15 -33 1 -20 9 7 25 -2 60 -32 41 -37 45 -44 34 -60 -12 -16 -16 -14 -60 24 -60 53 -62 36 -1 -19 37 -35 48 -40 60 -30 39 32 36 45 -25 98 -44 38 -61 47 -69 39z"/> <path d="M202 988 c6 -18 28 -21 28 -4 0 9 -7 16 -16 16 -9 0 -14 -5 -12 -12z"/> <path d="M1083 974 c-3 -8 2 -23 11 -32 15 -15 17 -15 32 0 21 21 11 48 -16 48 -11 0 -23 -7 -27 -16z m37 -9 c0 -8 -4 -15 -10 -15 -5 0 -10 7 -10 15 0 8 5 15 10 15 6 0 10 -7 10 -15z"/> <path d="M1216 923 c1 -60 6 -79 47 -160 26 -51 53 -93 61 -93 25 0 86 30 86 43 0 6 -19 56 -42 111 -29 68 -49 101 -64 106 -12 5 -30 20 -42 34 -35 45 -47 34 -46 -41z m59 9 l24 -19 -33 -15 -32 -16 0 34 c1 39 8 42 41 16z m79 -116 c20 -47 36 -89 36 -95 0 -9 -50 -41 -64 -41 -7 0 -99 181 -94 185 11 9 65 34 74 35 7 0 28 -38 48 -84z"/> <path d="M1301 758 c-1 -4 4 -19 11 -33 11 -26 32 -33 43 -15 3 6 0 10 -8 10 -8 0 -22 10 -30 23 -9 12 -16 19 -16 15z"/> <path d="M2984 959 c-3 -6 -1 -16 5 -22 8 -8 11 -5 11 11 0 24 -5 28 -16 11z"/> <path d="M262 933 c4 -21 33 -25 33 -3 0 8 -8 16 -18 18 -14 3 -18 -1 -15 -15z"/> <path d="M1590 925 c-11 -13 -11 -18 2 -31 20 -20 50 -7 46 20 -4 26 -30 32 -48 11z"/> <path d="M1416 897 l-29 -23 20 -45 c15 -34 127 -200 160 -239 5 -6 71 30 84 47 20 24 -155 282 -191 283 -8 0 -28 -10 -44 -23z m79 -24 l29 -36 -29 -23 c-41 -32 -49 -30 -70 16 -18 39 -18 40 6 59 13 11 26 20 29 20 3 0 18 -16 35 -36z m88 -126 c62 -98 63 -101 33 -121 -14 -9 -30 -16 -35 -16 -9 0 -108 129 -116 153 -4 10 48 54 66 56 3 1 26 -32 52 -72z"/> <path d="M1546 678 c23 -41 54 -56 54 -27 0 6 -4 7 -10 4 -5 -3 -15 3 -22 15 -14 21 -34 29 -22 8z"/> <path d="M2580 905 c-11 -13 -11 -19 3 -32 21 -21 49 -9 45 19 -4 28 -30 35 -48 13z"/> <path d="M2680 906 c0 -9 7 -16 16 -16 17 0 14 22 -4 28 -7 2 -12 -3 -12 -12z"/> <path d="M873 843 c-81 -32 -113 -49 -113 -61 0 -10 24 -78 53 -152 41 -106 57 -136 73 -138 11 -2 71 17 133 41 97 37 110 45 97 56 -9 8 -16 23 -16 35 1 30 -93 266 -105 265 -5 0 -61 -21 -122 -46z m150 -40 c14 -38 34 -91 45 -119 l21 -51 -100 -38 c-55 -21 -101 -36 -102 -34 -11 16 -89 230 -85 234 7 7 171 73 184 74 7 1 23 -29 37 -66z m-195 -129 c24 -63 42 -120 40 -126 -3 -9 -46 93 -94 225 -3 9 -2 17 2 17 5 0 28 -52 52 -116z m263 -95 c-3 -4 -50 -23 -104 -44 -73 -28 -101 -35 -110 -26 -17 17 0 28 109 70 87 34 100 37 105 22 4 -9 4 -19 0 -22z"/> <path d="M915 803 c-77 -31 -81 -36 -66 -71 l12 -30 47 18 c112 43 103 36 90 67 -18 42 -18 42 -83 16z m68 -33 c-16 -13 -112 -48 -117 -42 -18 18 -1 39 47 58 47 19 53 19 65 6 6 -9 9 -19 5 -22z"/> <path d="M990 566 c-30 -12 -64 -25 -74 -29 -10 -4 -17 -10 -14 -13 5 -4 157 52 167 62 11 10 -29 0 -79 -20z"/> <path d="M1115 881 c-8 -15 3 -31 21 -31 9 0 14 7 12 17 -4 20 -24 28 -33 14z"/> <path d="M1637 874 c-14 -14 -7 -35 11 -32 9 2 17 10 17 17 0 16 -18 25 -28 15z"/> <path d="M2662 833 c2 -10 10 -18 18 -18 22 0 18 29 -3 33 -14 3 -18 -1 -15 -15z"/> <path d="M2894 766 c38 -36 71 -64 73 -62 5 5 -91 95 -120 114 -12 7 9 -16 47 -52z"/> <path d="M1942 768 c-7 -7 -12 -17 -12 -23 0 -16 199 -209 243 -234 38 -23 46 -17 26 22 -11 22 -229 247 -239 247 -3 0 -11 -5 -18 -12z m33 -17 c7 -12 -12 -24 -25 -16 -11 7 -4 25 10 25 5 0 11 -4 15 -9z m100 -103 l80 -83 -80 76 c-47 45 -86 75 -94 72 -8 -4 -11 -1 -7 6 4 6 10 11 14 11 4 0 43 -37 87 -82z m-5 -25 l75 -78 -77 75 c-43 41 -78 76 -78 77 0 8 11 -3 80 -74z m115 -101 c-8 -9 -35 20 -28 31 4 6 11 3 19 -8 8 -10 12 -21 9 -23z"/> <path d="M2593 743 c-7 -15 -13 -36 -13 -47 0 -12 -7 -41 -15 -66 l-15 -45 5 40 c13 112 13 109 -27 119 -21 5 -40 7 -43 5 -2 -3 -7 -42 -11 -87 -6 -76 -6 -82 12 -81 11 0 13 3 7 6 -7 2 -13 9 -13 15 0 6 7 8 15 5 8 -4 17 -2 20 3 4 6 -4 10 -17 10 -18 0 -20 2 -8 10 13 9 13 10 0 10 -11 1 -10 4 4 15 14 11 16 15 5 15 -12 0 -12 2 1 10 10 6 11 10 3 10 -7 0 -13 4 -13 9 0 5 9 7 20 4 27 -7 25 5 -2 17 -21 8 -20 9 10 9 l34 1 -7 -77 c-10 -130 -17 -141 -61 -108 -19 14 -19 14 1 15 18 1 18 2 -2 10 -18 7 -23 17 -23 44 0 18 -6 48 -14 66 -18 44 -29 24 -32 -59 -1 -36 -5 -105 -9 -154 l-7 -87 34 -14 c50 -21 131 -30 155 -18 20 11 63 143 63 193 0 12 9 33 21 45 24 26 38 79 29 114 -11 47 -34 28 -60 -50 -14 -41 -28 -82 -31 -90 -3 -8 -4 14 -1 50 2 36 8 69 13 75 16 16 8 85 -10 85 -3 0 -12 -12 -18 -27z m23 -38 c-7 -18 -26 -20 -26 -2 0 18 24 41 28 27 2 -6 1 -17 -2 -25z m51 -70 c-12 -30 -26 -55 -31 -55 -4 0 -6 6 -3 14 3 8 11 32 18 55 7 23 18 41 25 41 9 0 6 -16 -9 -55z m-71 -2 c-11 -11 -17 4 -9 23 7 18 8 18 11 1 2 -10 1 -21 -2 -24z m-146 -38 c0 -25 -4 -45 -10 -45 -5 0 -10 20 -10 45 0 25 5 45 10 45 6 0 10 -20 10 -45z m150 13 c0 -27 -21 -88 -30 -88 -11 0 -13 24 -4 69 6 29 34 45 34 19z m34 -60 c-8 -27 -12 -33 -19 -27 -7 8 7 49 17 49 5 0 6 -10 2 -22z m-150 -23 c27 -8 71 -15 98 -15 42 0 49 -3 44 -17 -3 -10 -12 -44 -21 -75 l-16 -58 -46 0 c-25 0 -63 5 -84 12 l-39 11 0 79 c0 43 3 78 8 78 4 0 29 -7 56 -15z"/> <path d="M2437 463 c-2 -32 -1 -62 4 -67 5 -6 9 18 9 57 0 37 -2 67 -4 67 -2 0 -6 -26 -9 -57z"/> <path d="M672 733 c2 -10 10 -18 18 -18 8 0 16 8 18 18 2 12 -3 17 -18 17 -15 0 -20 -5 -18 -17z"/> <path d="M160 706 c0 -14 5 -28 10 -31 6 -3 10 5 10 19 0 14 -4 28 -10 31 -6 3 -10 -5 -10 -19z"/> <path d="M1847 703 c-12 -11 -8 -23 8 -23 8 0 15 7 15 15 0 16 -12 20 -23 8z"/> <path d="M2787 694 c-8 -8 1 -24 14 -24 5 0 9 7 9 15 0 15 -12 20 -23 9z"/> <path d="M292 678 c-14 -14 -16 -42 -2 -33 14 9 32 45 22 45 -4 0 -13 -5 -20 -12z"/> <path d="M654 676 c-9 -24 4 -48 23 -44 12 2 18 12 18 28 0 29 -32 41 -41 16z m36 -17 c0 -5 -7 -9 -15 -9 -15 0 -20 12 -9 23 8 8 24 -1 24 -14z"/> <path d="M1756 683 c-11 -11 -6 -23 9 -23 8 0 15 4 15 9 0 13 -16 22 -24 14z"/> <path d="M106 666 c3 -9 11 -16 16 -16 13 0 5 23 -10 28 -7 2 -10 -2 -6 -12z"/> <path d="M1207 666 c-11 -27 -8 -36 8 -36 16 0 17 5 6 34 -7 18 -8 18 -14 2z"/> <path d="M1875 670 c-8 -14 3 -30 21 -30 8 0 14 9 14 20 0 21 -24 28 -35 10z"/> <path d="M2260 640 c0 -13 -7 -20 -20 -20 -11 0 -20 -4 -20 -10 0 -5 7 -10 16 -10 9 0 18 -9 21 -20 6 -24 23 -27 23 -4 0 9 9 18 20 21 11 3 20 9 20 14 0 5 -9 9 -20 9 -13 0 -20 7 -20 20 0 11 -4 20 -10 20 -5 0 -10 -9 -10 -20z"/> <path d="M40 640 c0 -9 32 -30 46 -30 4 0 -1 9 -11 20 -19 21 -35 26 -35 10z"/> <path d="M153 634 c-18 -9 -39 -31 -49 -52 -16 -33 -16 -39 1 -90 12 -38 15 -68 10 -103 -5 -33 -3 -49 4 -49 6 0 11 -6 11 -14 0 -16 31 -31 39 -18 3 5 13 11 22 14 9 4 20 23 23 43 4 20 22 53 40 73 60 67 68 99 40 153 -14 28 -65 59 -96 59 -7 0 -27 -8 -45 -16z m90 -16 c34 -17 46 -39 47 -80 0 -29 -9 -47 -41 -85 -45 -52 -66 -67 -56 -39 4 10 7 24 7 32 0 8 6 11 15 8 19 -8 32 23 16 39 -10 9 -15 8 -25 -5 -17 -23 -26 -23 -26 2 0 11 -7 20 -15 20 -19 0 -33 -32 -17 -38 17 -5 15 -52 -2 -52 -8 0 -16 14 -19 33 -3 17 -9 44 -12 59 -21 82 56 145 128 106z m-62 -195 c-10 -17 -10 -16 -11 3 0 23 13 41 18 25 2 -6 -1 -18 -7 -28z m26 -37 c8 -8 -7 -8 -46 0 -17 4 -31 10 -31 14 0 8 67 -4 77 -14z m-22 -16 c18 -8 18 -9 -5 -9 -14 0 -32 4 -40 9 -12 8 -12 10 5 9 11 0 29 -4 40 -9z m-7 -20 c6 0 12 -4 12 -9 0 -6 -12 -6 -31 -1 -38 11 -55 26 -19 17 14 -4 31 -7 38 -7z"/> <path d="M163 608 c-22 -11 -39 -38 -24 -38 5 0 14 7 21 15 7 8 19 15 26 15 8 0 14 5 14 10 0 12 -8 12 -37 -2z"/> <path d="M1772 633 c2 -10 10 -18 18 -18 8 0 16 8 18 18 2 12 -3 17 -18 17 -15 0 -20 -5 -18 -17z"/> <path d="M320 620 c-8 -5 -11 -12 -7 -16 4 -4 15 0 24 9 18 18 8 23 -17 7z"/> <path d="M1165 620 c3 -5 12 -10 20 -10 7 0 17 -10 21 -22 l7 -23 8 23 c5 12 15 22 24 22 8 0 15 5 15 10 0 13 -23 13 -37 -1 -8 -8 -13 -8 -17 0 -4 6 -16 11 -27 11 -11 0 -17 -4 -14 -10z"/> <path d="M1855 621 c-3 -5 -1 -12 5 -16 12 -7 30 2 30 16 0 12 -27 12 -35 0z"/> <path d="M566 591 c-23 -44 -21 -123 4 -152 20 -24 20 -24 35 -5 8 11 15 30 15 43 0 14 6 23 15 23 8 0 15 5 15 10 0 6 -9 10 -19 10 -15 0 -21 -10 -26 -41 -4 -23 -12 -38 -18 -36 -21 7 -19 36 4 68 27 39 32 102 7 107 -11 2 -23 -8 -32 -27z m44 -1 c0 -15 -33 -80 -41 -80 -7 0 -6 5 6 63 5 25 35 40 35 17z"/> <path d="M2853 611 c-29 -4 -56 -11 -61 -16 -5 -6 -15 -38 -22 -72 -12 -60 -14 -62 -39 -57 -35 7 -60 -18 -41 -41 24 -29 80 -12 80 25 0 8 5 32 10 52 9 31 16 38 44 43 18 4 42 5 53 3 17 -3 18 -7 11 -36 -7 -27 -12 -31 -31 -27 -29 7 -50 -8 -45 -31 2 -14 12 -19 38 -19 l34 0 22 87 c20 80 21 100 5 97 -3 -1 -30 -5 -58 -8z m57 -21 c0 -14 -45 -30 -85 -30 -26 0 -33 4 -29 14 8 20 114 35 114 16z m-42 -132 c-3 -7 -13 -13 -23 -13 -10 0 -20 6 -22 13 -3 7 5 12 22 12 17 0 25 -5 23 -12z m-118 -19 c0 -16 -31 -22 -43 -10 -9 9 -9 14 2 20 16 10 41 4 41 -10z"/> <path d="M1742 598 c5 -15 28 -18 29 -3 0 6 -7 12 -17 13 -10 3 -15 -1 -12 -10z"/> <path d="M1855 580 c-3 -5 -2 -27 4 -47 5 -21 12 -59 16 -85 7 -54 31 -76 60 -54 15 11 16 19 6 85 -6 41 -9 82 -6 92 6 16 1 19 -34 19 -22 0 -43 -4 -46 -10z m50 -10 c-28 -12 -47 -12 -40 0 3 6 18 10 33 9 24 0 25 -1 7 -9z m21 -98 c6 -62 5 -72 -9 -72 -24 0 -30 17 -10 29 17 10 17 10 1 11 -21 0 -24 16 -5 23 6 3 3 6 -7 6 -20 1 -20 1 0 16 19 14 19 14 -1 15 -11 1 -14 4 -7 7 17 7 15 23 -3 23 -21 0 -19 18 3 23 27 6 31 -3 38 -81z"/> <path d="M335 560 c-4 -6 7 -10 24 -10 17 0 31 5 31 10 0 6 -11 10 -24 10 -14 0 -28 -4 -31 -10z"/> <path d="M1315 557 c-3 -7 -4 -76 -3 -152 l3 -140 108 -3 108 -3 -3 153 -3 153 -103 3 c-78 2 -104 0 -107 -11z m203 -144 l-3 -138 -92 -3 c-81 -2 -92 -1 -97 15 -6 21 -5 244 1 256 2 4 47 7 99 7 l95 0 -3 -137z"/> <path d="M1340 505 c0 -25 1 -25 80 -25 79 0 80 0 80 25 0 25 -1 25 -80 25 -79 0 -80 0 -80 -25z m148 3 c-3 -9 -26 -13 -68 -13 -42 0 -65 4 -67 13 -4 9 14 12 67 12 53 0 71 -3 68 -12z"/> <path d="M1340 445 c0 -9 9 -15 25 -15 16 0 25 6 25 15 0 9 -9 15 -25 15 -16 0 -25 -6 -25 -15z"/> <path d="M1400 445 c0 -8 9 -15 20 -15 11 0 20 7 20 15 0 8 -9 15 -20 15 -11 0 -20 -7 -20 -15z"/> <path d="M1450 445 c0 -9 9 -15 25 -15 16 0 25 6 25 15 0 9 -9 15 -25 15 -16 0 -25 -6 -25 -15z"/> <path d="M1345 411 c-9 -16 3 -31 26 -31 14 0 19 6 17 17 -4 20 -33 29 -43 14z"/> <path d="M1407 413 c-14 -13 -6 -33 13 -33 13 0 20 7 20 20 0 19 -20 27 -33 13z"/> <path d="M1455 411 c-9 -16 3 -31 26 -31 14 0 19 6 17 17 -4 20 -33 29 -43 14z"/> <path d="M1340 355 c0 -9 9 -15 25 -15 16 0 25 6 25 15 0 9 -9 15 -25 15 -16 0 -25 -6 -25 -15z"/> <path d="M1400 355 c0 -8 9 -15 20 -15 11 0 20 7 20 15 0 8 -9 15 -20 15 -11 0 -20 -7 -20 -15z"/> <path d="M1450 330 c0 -36 3 -40 25 -40 23 0 25 4 25 40 0 36 -2 40 -25 40 -22 0 -25 -4 -25 -40z m38 5 c-4 -33 -22 -33 -26 0 -2 18 1 25 13 25 12 0 15 -7 13 -25z"/> <path d="M1345 321 c-9 -16 3 -31 26 -31 14 0 19 6 17 17 -4 20 -33 29 -43 14z"/> <path d="M1413 323 c-21 -7 -15 -33 7 -33 11 0 20 6 20 14 0 18 -11 25 -27 19z"/> <path d="M1724 545 c9 -37 -16 -84 -72 -137 -51 -48 -69 -89 -57 -127 7 -25 71 -50 145 -58 51 -5 60 -3 80 17 19 19 21 29 16 68 -3 25 -17 65 -31 88 -29 49 -32 99 -9 132 14 21 14 23 -11 32 -14 6 -35 10 -47 10 -17 0 -19 -4 -14 -25z m51 5 c20 -9 20 -9 0 -9 -11 0 -27 4 -35 9 -13 9 -13 10 0 9 8 0 24 -4 35 -9z m-6 -55 c-9 -33 -1 -63 39 -137 2 -3 -18 0 -44 8 -26 8 -62 14 -81 14 -18 0 -33 2 -33 5 0 3 18 21 40 41 25 23 42 48 46 70 4 24 12 34 24 34 16 0 17 -4 9 -35z m-26 -139 c32 -7 61 -17 65 -21 12 -13 -114 3 -150 19 l-33 14 30 1 c17 0 56 -5 88 -13z m-54 -26 c22 -6 60 -11 85 -12 40 -2 46 -5 46 -24 0 -46 -10 -54 -62 -54 -61 0 -122 17 -143 40 -19 22 -4 75 20 67 7 -3 32 -11 54 -17z"/> <path d="M1660 305 c0 -8 7 -15 15 -15 8 0 15 7 15 15 0 8 -7 15 -15 15 -8 0 -15 -7 -15 -15z"/> <path d="M1724 285 c-4 -9 -2 -21 4 -27 15 -15 44 -1 40 19 -4 23 -36 29 -44 8z m36 -15 c0 -5 -7 -10 -15 -10 -8 0 -15 5 -15 10 0 6 7 10 15 10 8 0 15 -4 15 -10z"/> <path d="M687 535 c-9 -8 -18 -28 -22 -45 -4 -16 -14 -34 -23 -39 -9 -5 -14 -13 -10 -17 4 -4 14 -1 23 6 8 7 22 9 31 6 19 -7 64 18 64 36 0 6 -8 4 -18 -5 -27 -25 -52 -22 -52 7 0 31 28 56 40 36 11 -18 24 -6 17 15 -8 19 -31 19 -50 0z"/> <path d="M2305 541 c-8 -15 3 -31 21 -31 9 0 14 7 12 17 -4 20 -24 28 -33 14z"/> <path d="M1620 525 c0 -9 5 -15 11 -13 6 2 11 8 11 13 0 5 -5 11 -11 13 -6 2 -11 -4 -11 -13z"/> <path d="M40 510 c0 -5 6 -10 14 -10 8 0 18 5 21 10 3 6 -3 10 -14 10 -12 0 -21 -4 -21 -10z"/> <path d="M440 488 c-11 -12 -20 -30 -20 -39 0 -10 -10 -27 -22 -39 -18 -16 -19 -20 -5 -20 8 0 18 4 21 9 3 4 16 6 30 4 13 -3 27 0 30 6 4 5 13 8 22 4 15 -6 54 23 54 40 0 6 -10 1 -23 -11 -29 -28 -36 -21 -30 29 5 35 3 39 -15 39 -12 0 -30 -10 -42 -22z m40 -28 c-16 -55 -40 -70 -40 -26 0 37 10 56 30 56 16 0 17 -5 10 -30z"/> <path d="M1127 469 c-21 -12 -14 -29 12 -29 10 0 35 -11 55 -25 20 -14 39 -25 41 -25 3 0 5 11 5 25 0 51 -65 82 -113 54z m75 -11 c16 -13 32 -48 22 -48 -3 0 -17 9 -31 20 -14 11 -32 20 -40 20 -8 0 -11 5 -8 10 9 14 38 13 57 -2z"/> <path d="M1059 446 c10 -11 8 -16 -9 -21 -11 -3 -34 -18 -50 -32 -32 -27 -41 -21 -13 9 9 10 11 18 6 18 -6 0 -18 -11 -27 -25 -19 -29 -20 -39 -4 -29 8 5 9 2 4 -12 -28 -66 -9 -161 35 -185 14 -7 18 -17 14 -37 -6 -26 -6 -26 7 -6 10 16 18 19 33 13 35 -14 79 -10 119 11 29 16 41 18 52 9 16 -13 19 2 3 18 -8 8 -6 18 6 37 25 38 17 127 -16 162 -32 35 -71 54 -110 54 -24 0 -30 4 -25 15 4 10 -1 15 -16 15 -16 0 -18 -3 -9 -14z m116 -46 c87 -54 83 -190 -7 -236 -41 -21 -95 -21 -137 0 -42 22 -76 93 -67 142 8 38 49 92 80 104 38 15 98 11 131 -10z"/> <path d="M1041 393 c-23 -12 -40 -31 -53 -61 -17 -39 -18 -48 -6 -85 17 -54 64 -87 125 -87 87 0 145 96 107 175 -32 68 -103 92 -173 58z m103 -7 c72 -30 90 -119 37 -178 -43 -48 -119 -48 -162 0 -50 56 -32 149 34 177 41 18 50 18 91 1z"/> <path d="M1074 367 c-9 -9 -8 -22 4 -50 14 -36 14 -39 -8 -62 -13 -14 -19 -25 -13 -25 5 0 20 12 34 26 36 39 80 59 90 43 4 -8 11 -10 15 -7 3 4 -1 14 -10 23 -9 9 -14 21 -11 26 4 5 1 9 -4 9 -6 0 -11 -6 -11 -13 0 -8 -11 -20 -25 -27 -32 -17 -48 -3 -48 40 0 16 -1 30 -1 30 -1 -1 -6 -6 -12 -13z"/> <path d="M942 427 c-12 -13 -22 -32 -22 -43 0 -24 17 -51 26 -41 4 3 2 12 -3 19 -14 18 1 54 28 68 17 9 23 9 29 0 4 -7 13 -9 19 -6 18 12 2 26 -28 26 -16 0 -37 -10 -49 -23z"/> <path d="M2008 378 c-59 -35 -108 -66 -108 -69 0 -4 20 -10 44 -13 46 -7 48 -9 61 -73 5 -27 12 -33 42 -39 56 -11 136 2 192 31 l52 26 -6 53 c-5 41 -4 55 9 65 24 20 30 8 28 -59 -2 -57 -1 -60 23 -60 36 0 38 15 10 67 -29 55 -31 71 -10 79 32 13 12 22 -67 33 -177 25 -152 28 -270 -41z m287 25 l40 -6 -30 -9 c-16 -5 -61 -8 -100 -7 -96 1 -95 1 -95 -17 0 -13 6 -15 33 -10 48 11 143 20 137 13 -3 -3 -33 -22 -68 -42 l-63 -37 -100 11 c-55 6 -105 11 -112 11 -7 0 29 25 78 55 l90 54 75 -5 c41 -3 93 -8 115 -11z m-31 -85 c20 -62 18 -65 -36 -91 -61 -29 -130 -41 -173 -29 -23 7 -31 16 -38 46 -5 20 -8 39 -5 41 2 2 35 0 73 -5 67 -9 72 -8 115 20 50 33 59 36 64 18z m86 -27 c0 -5 3 -16 6 -25 4 -11 1 -16 -10 -16 -10 0 -16 9 -16 25 0 14 5 25 10 25 6 0 10 -4 10 -9z"/> <path d="M689 401 c-22 -23 -29 -39 -29 -69 0 -23 6 -45 15 -52 19 -16 19 -30 0 -30 -8 0 -37 -28 -65 -61 -47 -57 -50 -63 -35 -78 15 -15 19 -12 61 34 24 28 47 63 50 78 5 21 11 26 23 22 41 -16 68 -15 99 5 43 26 57 64 43 111 -22 72 -108 93 -162 40z m122 -10 c37 -38 39 -82 4 -116 -54 -54 -145 -13 -145 65 0 30 53 80 85 80 16 0 38 -12 56 -29z m-150 -188 c-44 -61 -70 -88 -76 -81 -9 8 72 108 87 108 5 0 0 -12 -11 -27z"/> <path d="M734 400 c-34 -13 -69 -70 -44 -70 6 0 10 6 10 13 0 19 33 47 53 47 9 0 17 5 17 10 0 12 -7 12 -36 0z"/> <path d="M0 363 c0 -3 8 -11 17 -18 16 -12 16 -16 -1 -73 -10 -33 -17 -65 -14 -72 2 -8 14 21 27 63 12 42 20 81 17 86 -6 10 -46 22 -46 14z"/> <path d="M2830 356 c0 -15 24 -28 34 -19 13 14 5 33 -14 33 -11 0 -20 -6 -20 -14z"/> <path d="M2967 363 c-2 -5 -14 -41 -26 -81 -25 -83 -19 -102 30 -102 21 0 29 5 29 18 0 13 -2 14 -9 3 -13 -20 -51 -4 -51 21 0 17 4 20 30 15 36 -8 40 8 4 17 -20 5 -24 11 -18 29 15 50 24 67 34 67 5 0 10 5 10 10 0 12 -27 14 -33 3z"/> <path d="M235 293 c-4 -21 -15 -54 -25 -74 -11 -20 -25 -59 -31 -88 -6 -30 -21 -62 -35 -76 -30 -30 -31 -52 -2 -50 20 1 25 12 40 76 10 41 20 85 23 97 10 39 53 72 94 72 74 -1 154 -27 185 -61 26 -29 28 -37 22 -83 -3 -28 -9 -64 -12 -81 -4 -17 -4 -27 0 -23 12 11 34 116 29 141 -3 13 2 41 11 62 21 50 21 51 -14 65 -28 11 -33 10 -54 -9 -29 -27 -44 -27 -48 2 -4 29 -47 36 -65 11 -15 -21 -30 -10 -35 26 -2 21 -9 26 -40 28 -36 3 -37 2 -43 -35z m66 6 c9 -17 8 -23 -2 -30 -21 -13 -34 -5 -37 24 -4 33 22 37 39 6z m107 -36 c2 -8 -5 -13 -17 -13 -21 0 -35 13 -24 24 10 10 36 3 41 -11z m104 -36 c-18 -17 -23 -18 -37 -7 -14 12 -14 15 1 31 13 15 21 16 36 8 20 -11 20 -11 0 -32z"/> <path d="M574 319 c-8 -14 11 -33 25 -25 6 4 11 14 11 22 0 16 -26 19 -36 3z"/> <path d="M2700 300 c0 -17 -7 -42 -16 -56 -13 -19 -14 -30 -6 -48 14 -31 4 -108 -16 -123 -11 -10 -12 -13 -3 -13 10 0 12 -9 8 -30 -4 -16 -3 -30 1 -30 5 0 14 35 20 77 7 42 14 79 17 81 12 12 12 -8 1 -80 -7 -43 -9 -78 -4 -78 4 0 8 10 8 23 0 12 5 29 10 37 9 13 11 13 20 0 6 -10 10 -11 10 -2 0 27 27 10 40 -25 7 -21 15 -33 17 -27 2 5 -10 43 -27 83 -34 83 -33 81 -21 81 6 0 24 -38 42 -85 18 -47 36 -85 41 -85 4 0 1 17 -7 37 -12 29 -13 38 -3 45 10 6 9 8 -3 8 -19 0 -49 71 -49 118 0 21 -7 36 -20 44 -13 9 -20 24 -20 45 0 26 -4 33 -20 33 -16 0 -20 -7 -20 -30z m30 -11 c0 -10 -4 -19 -10 -19 -5 0 -10 12 -10 26 0 14 4 23 10 19 6 -3 10 -15 10 -26z m36 -64 c11 -43 -34 -73 -64 -43 -13 13 -16 50 -5 61 3 4 19 7 34 7 22 0 30 -6 35 -25z m-11 -102 c15 -35 12 -60 -4 -34 -7 11 -9 11 -13 0 -3 -8 -8 -11 -12 -8 -7 7 2 79 10 79 2 0 11 -16 19 -37z"/> <path d="M2711 226 c-16 -19 -6 -36 20 -36 15 0 20 6 17 22 -4 27 -21 33 -37 14z m29 -11 c0 -8 -4 -15 -10 -15 -5 0 -10 7 -10 15 0 8 5 15 10 15 6 0 10 -7 10 -15z"/> <path d="M2487 253 c-4 -3 -7 -62 -7 -130 0 -111 2 -123 18 -122 10 0 12 3 5 6 -7 2 -13 9 -13 15 0 6 7 8 15 5 8 -4 17 -2 20 3 4 6 -4 10 -17 10 -18 0 -20 2 -8 10 13 9 13 10 0 10 -13 0 -13 1 0 10 13 9 13 11 0 20 -13 9 -13 10 0 10 13 0 13 2 1 9 -11 7 -9 10 10 14 l24 4 -25 2 c-20 1 -22 3 -10 11 13 9 13 11 0 20 -13 9 -13 10 0 10 13 0 13 1 0 10 -13 9 -13 10 0 10 12 0 12 2 2 9 -10 6 -8 10 10 16 l23 7 -25 8 c-24 8 -23 8 8 9 l32 1 0 -120 c0 -84 3 -120 11 -120 9 0 10 22 5 77 -3 42 -6 100 -6 130 l0 53 -33 0 c-19 0 -37 -3 -40 -7z"/> <path d="M93 224 c-3 -8 2 -23 11 -32 14 -15 18 -15 31 -1 9 9 13 23 9 32 -8 21 -43 22 -51 1z"/> <path d="M275 231 c-11 -5 -27 -17 -37 -27 -16 -19 -38 -85 -38 -114 1 -24 16 8 25 50 16 77 58 93 165 65 72 -19 94 -45 87 -105 -3 -25 -9 -53 -12 -63 -4 -9 -3 -17 2 -17 5 0 15 23 21 51 11 45 10 57 -5 88 -15 29 -28 39 -68 52 -69 23 -116 29 -140 20z"/> <path d="M1500 188 c-58 -22 -111 -45 -118 -51 -13 -11 -10 -25 20 -96 26 -61 33 -45 8 18 -11 28 -20 56 -20 62 0 18 18 0 24 -24 9 -38 37 -100 42 -94 3 2 -6 34 -20 70 l-24 65 99 37 c55 21 101 36 103 34 1 -2 20 -50 41 -106 21 -57 42 -103 47 -103 11 0 13 -9 -35 114 -23 60 -47 111 -52 112 -6 2 -57 -15 -115 -38z"/> <path d="M1317 214 c-14 -14 -7 -35 11 -32 9 2 17 10 17 17 0 16 -18 25 -28 15z"/> <path d="M720 164 c-6 -14 -10 -49 -10 -78 0 -44 -4 -56 -22 -69 l-23 -15 30 0 c28 1 30 3 27 32 -2 17 1 56 6 86 l10 55 1 -82 c0 -45 6 -85 11 -88 6 -3 10 1 10 10 0 9 16 39 35 68 38 57 43 77 19 77 -10 0 -14 -5 -10 -15 3 -9 -6 -34 -20 -55 -30 -45 -34 -48 -32 -23 4 50 -3 123 -12 123 -6 0 -15 -12 -20 -26z"/> <path d="M1740 139 c-22 -42 -21 -69 2 -69 7 0 30 -9 51 -20 20 -11 42 -20 48 -20 5 0 19 21 31 46 21 48 16 63 -22 64 -8 0 -28 9 -45 20 -16 11 -33 20 -37 20 -4 0 -17 -18 -28 -41z m65 5 c20 -16 19 -16 -4 -9 -15 5 -26 3 -32 -6 -15 -24 -10 -29 36 -50 25 -11 43 -24 40 -29 -3 -5 -23 -1 -43 10 -20 11 -42 20 -49 20 -16 0 -17 21 -1 55 13 29 25 31 53 9z m9 -29 c8 -9 18 -15 21 -15 14 3 28 -7 24 -17 -6 -16 -79 15 -79 33 0 18 15 18 34 -1z"/> <path d="M2347 173 c-11 -11 -8 -25 4 -17 8 4 9 0 4 -15 -5 -17 -2 -21 17 -20 13 0 17 3 11 6 -8 3 -11 14 -7 29 4 17 2 24 -8 24 -8 0 -18 -3 -21 -7z"/> <path d="M60 156 c0 -8 4 -17 9 -20 11 -7 33 18 24 27 -12 12 -33 7 -33 -7z"/> <path d="M302 143 c3 -23 10 -29 52 -39 57 -15 66 -12 66 20 0 20 -8 26 -44 35 -69 17 -78 15 -74 -16z m98 -19 c0 -17 -4 -17 -52 -4 -25 7 -35 15 -32 24 7 18 84 0 84 -20z"/> <path d="M1545 149 c-100 -39 -95 -35 -84 -69 13 -36 20 -37 90 -8 71 28 72 30 57 66 l-13 30 -50 -19z m52 -32 c-3 -7 -29 -23 -59 -34 l-53 -20 -8 20 c-4 11 -6 21 -5 22 2 1 28 11 58 22 55 21 78 17 67 -10z"/> <path d="M1970 156 c0 -8 -10 -21 -22 -27 l-22 -12 22 -8 c14 -5 22 -17 22 -31 1 -22 1 -22 16 5 8 15 22 27 32 28 13 0 12 3 -5 11 -13 6 -23 17 -23 24 0 7 -4 16 -10 19 -5 3 -10 -1 -10 -9z"/> <path d="M1300 140 c0 -5 7 -10 15 -10 8 0 15 5 15 10 0 6 -7 10 -15 10 -8 0 -15 -4 -15 -10z"/> <path d="M775 120 c-10 -11 -16 -22 -13 -25 3 -3 13 4 23 15 10 11 16 22 13 25 -3 3 -13 -4 -23 -15z"/> <path d="M2091 123 c-21 -4 -23 -9 -17 -41 3 -21 6 -45 6 -54 0 -13 8 -18 29 -18 17 0 33 5 36 10 4 6 -7 10 -24 10 -21 0 -31 5 -31 15 0 8 9 15 21 15 11 0 18 4 14 10 -3 5 -12 7 -20 3 -10 -3 -15 2 -15 16 0 14 6 21 20 21 11 0 20 5 20 10 0 6 -3 9 -7 9 -5 -1 -19 -4 -32 -6z"/> <path d="M2925 104 c-4 -12 -16 -26 -28 -32 -18 -9 -19 -11 -4 -11 10 -1 23 -13 29 -28 11 -27 12 -27 15 -6 3 12 14 25 25 29 20 6 20 7 3 17 -14 7 -20 7 -23 -1 -2 -7 -8 -12 -14 -12 -6 0 -6 6 2 15 6 8 10 22 7 32 -4 16 -6 16 -12 -3z"/> <path d="M2311 96 c-9 -11 -10 -20 -1 -35 11 -22 44 -28 55 -11 4 6 -5 10 -20 10 -20 0 -26 4 -23 18 2 10 11 16 21 14 9 -2 17 2 17 8 0 15 -36 12 -49 -4z"/> <path d="M2210 65 c0 -19 5 -35 10 -35 6 0 8 11 4 25 -4 15 -2 25 5 25 6 0 11 -9 11 -19 0 -11 5 -23 11 -27 7 -4 10 3 7 19 -4 36 16 37 24 1 6 -28 6 -27 5 6 -2 33 -4 35 -39 37 -37 2 -38 1 -38 -32z"/> <path d="M2150 70 c0 -13 11 -13 30 0 12 8 11 10 -7 10 -13 0 -23 -4 -23 -10z"/> <path d="M915 31 c-8 -17 -12 -31 -7 -31 5 0 14 12 21 27 12 27 13 27 27 9 7 -10 15 -24 17 -30 2 -6 7 -9 10 -6 10 9 -18 55 -35 58 -11 2 -23 -8 -33 -27z"/> <path d="M1061 23 c0 -27 1 -27 9 -5 12 29 62 30 90 2 15 -15 20 -16 20 -5 0 21 -32 35 -79 35 -38 0 -41 -2 -40 -27z"/> <path d="M1249 20 c-13 -10 -19 -19 -12 -20 6 0 15 5 18 10 8 13 51 13 76 0 13 -8 19 -7 19 0 0 11 -41 30 -65 30 -7 0 -23 -9 -36 -20z"/> <path d="M205 19 c-4 -6 -4 -13 0 -17 3 -3 10 -1 14 7 6 10 17 10 47 2 22 -6 53 -11 69 -10 23 1 17 4 -25 14 -67 17 -97 18 -105 4z"/> <path d="M1090 10 c0 -5 14 -10 31 -10 17 0 28 4 24 10 -8 13 -55 13 -55 0z"/> </g> </svg> 